<svg id="Layer_1" data-name="Layer 1" xmlns="http://www.w3.org/2000/svg" viewBox="0 0 27.03 30.56"><defs><style>.cls-1{fill:#fff;}.cls-2{fill:#7158e2;stroke:#fff;stroke-width:1.5px;}</style></defs><path class="cls-1" d="M21.09,30.76H3.71a1.12,1.12,0,0,1-.77-.32,1.1,1.1,0,0,1-.32-.77V10.12a1.1,1.1,0,0,1,.32-.77A1.12,1.12,0,0,1,3.71,9H21.09a1.09,1.09,0,0,1,1.09,1.09V29.67a1.09,1.09,0,0,1-1.09,1.09ZM9.14,13.38H7v2.17a5.43,5.43,0,1,0,10.86,0V13.38H15.66v2.17a3.25,3.25,0,0,1-.95,2.3,3.27,3.27,0,0,1-5.57-2.3Z" transform="translate(-2.62 -0.2)"/><circle class="cls-2" cx="18.33" cy="8.69" r="7.94"/></svg>