<svg width="14" height="14" viewBox="0 0 14 14" fill="none" xmlns="http://www.w3.org/2000/svg">
<path d="M9.81276 1.93754C7.63834 -0.236882 4.112 -0.236882 1.93759 1.93753C-0.236831 4.11195 -0.236831 7.63829 1.93759 9.81271C3.86384 11.739 6.8513 11.9564 9.01863 10.4698L11.7296 13.5021C12.1904 14.0197 12.9917 14.041 13.4809 13.5518L13.5518 13.4809C14.0411 12.9916 14.0198 12.1904 13.5022 11.7295L10.4698 9.01857C11.9588 6.84888 11.739 3.86379 9.81276 1.93754ZM8.46084 8.46079C7.03329 9.88834 4.71706 9.88834 3.28951 8.46079C1.86196 7.03324 1.86196 4.71701 3.28951 3.28946C4.71706 1.8619 7.03329 1.8619 8.46084 3.28946C9.89076 4.71937 9.88839 7.03324 8.46084 8.46079Z" fill="#FEFDFE"/>
</svg>
