<svg width="188" height="40" viewBox="0 0 188 40" fill="none" xmlns="http://www.w3.org/2000/svg">
<g clip-path="url(#clip0_40_173)">
<path d="M187.267 18.0961V14.8028H183.177V9.68287L183.039 9.72526L179.198 10.9006L179.122 10.9236V14.803H173.059V12.6418C173.059 11.6355 173.284 10.8654 173.728 10.3519C174.168 9.84445 174.798 9.58649 175.601 9.58649C176.179 9.58649 176.777 9.72254 177.378 9.99082L177.529 10.0582V6.58986L177.458 6.56378C176.897 6.36197 176.133 6.26035 175.187 6.26035C173.994 6.26035 172.91 6.51994 171.965 7.03441C171.019 7.54961 170.275 8.28509 169.754 9.2202C169.235 10.1542 168.971 11.233 168.971 12.4268V14.8028H166.123V18.0961H168.971V31.9705H173.059V18.0961H179.122V26.913C179.122 30.5442 180.835 32.3844 184.213 32.3844C184.768 32.3844 185.352 32.3194 185.949 32.192C186.556 32.0612 186.969 31.9306 187.213 31.7911L187.267 31.7592V28.4354L187.1 28.5454C186.878 28.6932 186.602 28.814 186.278 28.9039C185.953 28.9954 185.681 29.0412 185.471 29.0412C184.679 29.0412 184.094 28.828 183.731 28.4072C183.363 27.9826 183.177 27.24 183.177 26.2013V18.0961H187.267ZM156.994 29.0418C155.51 29.0418 154.34 28.5497 153.516 27.5806C152.686 26.6065 152.266 25.2178 152.266 23.4534C152.266 21.633 152.686 20.2082 153.516 19.2169C154.341 18.2322 155.5 17.7324 156.961 17.7324C158.378 17.7324 159.506 18.2097 160.315 19.1519C161.127 20.099 161.539 21.5123 161.539 23.3539C161.539 25.2182 161.152 26.6502 160.387 27.6081C159.628 28.5588 158.486 29.0418 156.994 29.0418ZM157.176 14.3892C154.345 14.3892 152.096 15.2187 150.493 16.8547C148.891 18.4909 148.079 20.7551 148.079 23.5851C148.079 26.273 148.872 28.4351 150.436 30.0102C152 31.5859 154.128 32.384 156.762 32.384C159.506 32.384 161.709 31.5429 163.312 29.8843C164.914 28.2275 165.726 25.9846 165.726 23.2208C165.726 20.4908 164.964 18.3126 163.461 16.748C161.957 15.1827 159.842 14.3892 157.176 14.3892ZM141.487 14.3892C139.562 14.3892 137.969 14.8818 136.752 15.8529C135.528 16.8299 134.907 18.1112 134.907 19.6617C134.907 20.4676 135.041 21.1835 135.305 21.7908C135.57 22.4 135.981 22.9364 136.526 23.3865C137.068 23.8331 137.904 24.3008 139.011 24.7767C139.942 25.1598 140.637 25.4839 141.078 25.7393C141.509 25.9897 141.815 26.2413 141.988 26.4864C142.156 26.7263 142.241 27.0545 142.241 27.4596C142.241 28.613 141.377 29.1742 139.6 29.1742C138.941 29.1742 138.189 29.0365 137.365 28.7651C136.547 28.4979 135.775 28.1065 135.076 27.6047L134.907 27.4829V31.4188L134.969 31.4478C135.547 31.7148 136.277 31.94 137.136 32.1172C137.994 32.2945 138.774 32.3848 139.451 32.3848C141.54 32.3848 143.223 31.8898 144.451 30.9129C145.687 29.9292 146.313 28.6177 146.313 27.0136C146.313 25.8564 145.976 24.864 145.311 24.0637C144.651 23.2699 143.506 22.5411 141.908 21.8969C140.635 21.3861 139.82 20.962 139.484 20.6364C139.159 20.322 138.995 19.8772 138.995 19.314C138.995 18.8148 139.198 18.4148 139.615 18.0909C140.036 17.7654 140.621 17.5998 141.355 17.5998C142.036 17.5998 142.733 17.7074 143.426 17.9183C144.119 18.1291 144.727 18.4115 145.235 18.757L145.402 18.8711V15.1376L145.338 15.11C144.869 14.9091 144.251 14.7372 143.501 14.5977C142.754 14.4591 142.077 14.3892 141.487 14.3892ZM124.249 29.0418C122.766 29.0418 121.596 28.5497 120.772 27.5806C119.942 26.6065 119.522 25.2182 119.522 23.4534C119.522 21.633 119.942 20.2082 120.772 19.2169C121.597 18.2322 122.755 17.7324 124.217 17.7324C125.634 17.7324 126.762 18.2097 127.571 19.1519C128.383 20.099 128.795 21.5123 128.795 23.3539C128.795 25.2182 128.407 26.6502 127.643 27.6081C126.884 28.5588 125.743 29.0418 124.249 29.0418ZM124.432 14.3892C121.6 14.3892 119.351 15.2187 117.749 16.8547C116.147 18.4909 115.334 20.7551 115.334 23.5851C115.334 26.2741 116.128 28.4351 117.692 30.0102C119.256 31.5859 121.384 32.384 124.018 32.384C126.761 32.384 128.966 31.5429 130.568 29.8843C132.17 28.2275 132.982 25.9846 132.982 23.2208C132.982 20.4908 132.22 18.3126 130.717 16.748C129.213 15.1827 127.098 14.3892 124.432 14.3892ZM109.129 17.7759V14.8028H105.09V31.9701H109.129V23.1883C109.129 21.6951 109.467 20.4683 110.135 19.5417C110.795 18.6262 111.674 18.1623 112.747 18.1623C113.111 18.1623 113.519 18.2222 113.961 18.3409C114.399 18.4588 114.716 18.5869 114.903 18.7217L115.073 18.8447V14.7734L115.007 14.7454C114.631 14.5856 114.099 14.505 113.426 14.505C112.411 14.505 111.503 14.831 110.725 15.4731C110.042 16.0373 109.549 16.811 109.172 17.7759H109.129ZM97.8586 14.3892C96.0059 14.3892 94.3535 14.7865 92.9479 15.5696C91.5394 16.3545 90.4502 17.4752 89.7091 18.9001C88.9712 20.3216 88.5966 21.9821 88.5966 23.8338C88.5966 25.4558 88.9598 26.9444 89.6777 28.2563C90.396 29.5704 91.4126 30.5984 92.6995 31.3114C93.9846 32.0235 95.4699 32.3846 97.1144 32.3846C99.0336 32.3846 100.672 32.0009 101.986 31.2442L102.039 31.2138V27.5141L101.869 27.638C101.274 28.0715 100.609 28.4175 99.8935 28.6668C99.1797 28.9159 98.529 29.0418 97.9584 29.0418C96.3739 29.0418 95.1018 28.5459 94.1785 27.5684C93.2531 26.5897 92.784 25.2153 92.784 23.4858C92.784 21.7455 93.2733 20.3357 94.2375 19.2956C95.1989 18.2585 96.4733 17.7324 98.0251 17.7324C99.3524 17.7324 100.646 18.1818 101.869 19.0695L102.039 19.1925V15.2943L101.984 15.2635C101.524 15.0057 100.896 14.7928 100.116 14.6314C99.3395 14.4704 98.5801 14.3892 97.8586 14.3892ZM85.8154 14.803H81.7771V31.9701H85.8154V14.803ZM83.8376 7.48965C83.1729 7.48965 82.5932 7.71591 82.117 8.16426C81.6387 8.61388 81.3962 9.17998 81.3962 9.84808C81.3962 10.5057 81.6358 11.0614 82.1095 11.4991C82.5802 11.9355 83.1617 12.1567 83.8377 12.1567C84.5136 12.1567 85.0973 11.9355 85.5735 11.4998C86.0529 11.0614 86.296 10.5058 86.296 9.84808C86.296 9.20335 86.0594 8.64305 85.5933 8.18238C85.1275 7.72261 84.5366 7.48965 83.8376 7.48965ZM73.7618 13.5363V31.9701H77.8831V8.01517H72.1791L64.929 25.8082L57.8932 8.01517H51.957V31.9699H55.8299V13.5345H55.9629L63.3925 31.9701H66.3152L73.6289 13.5363H73.7618Z" fill="white"/>
<path d="M18.9971 19.0074H0V0.0102539H18.9971V19.0074Z" fill="#F1511B"/>
<path d="M39.9714 19.0073H20.9746V0.0102234H39.9714V19.0073Z" fill="#80CC28"/>
<path d="M18.9966 39.9897H0V20.9928H18.9966V39.9897Z" fill="#00ADEF"/>
<path d="M39.9714 39.9897H20.9746V20.9928H39.9714V39.9897Z" fill="#FBBC09"/>
</g>
<defs>
<clipPath id="clip0_40_173">
<rect width="187.266" height="40" fill="white"/>
</clipPath>
</defs>
</svg>
