<svg width="79" height="40" viewBox="0 0 79 40" fill="none" xmlns="http://www.w3.org/2000/svg">
<g clip-path="url(#clip0_40_257)">
<path d="M1.63509 2.19956L2.666 1.1818C4.24596 -0.36115 6.82377 -0.262667 8.27073 1.39531L22.5402 17.8094C23.7875 19.2373 23.7709 21.3548 22.5069 22.7665L8.28749 38.6716C6.82392 40.2966 4.27932 40.3786 2.71612 38.8358L1.68491 37.818C0.287918 36.4392 0.188133 34.2397 1.45213 32.7297L9.96723 22.6513C11.1314 21.2725 11.148 19.2863 10.0172 17.8748L1.36895 7.20567C0.138164 5.72857 0.254707 3.56194 1.63509 2.19971V2.19956Z" fill="#92D13D"/>
<path fill-rule="evenodd" clip-rule="evenodd" d="M29.8586 32.2538H26.5491V13.2626H29.8586V15.2488C30.3243 13.9192 32.0041 12.9672 34.2991 12.9672C36.2616 12.9672 37.9082 13.6565 39.2386 15.0353C40.5858 16.3977 41.251 18.0884 41.251 20.1238C41.251 22.159 40.5858 23.8496 39.2386 25.2449C37.9082 26.6073 36.2618 27.2803 34.2991 27.2803C32.0041 27.2803 30.3245 26.3283 29.8586 24.9988V32.2538ZM29.6091 20.1402C29.6091 18.9419 30.025 17.9242 30.8233 17.1364C31.6548 16.3485 32.6861 15.938 33.8668 15.938C35.0476 15.938 36.0289 16.3485 36.7939 17.1364C37.5922 17.9406 37.9746 18.9419 37.9746 20.1402C37.9746 21.3384 37.5922 22.356 36.7939 23.1439C36.0122 23.9317 35.0642 24.3422 33.8668 24.3422C32.6694 24.3422 31.6549 23.9319 30.8233 23.144C30.025 22.3396 29.6091 21.3384 29.6091 20.1402Z" fill="white"/>
<path d="M42.3985 8.01007H45.7082V22.5038C45.7082 23.8334 46.1573 24.4078 47.3713 24.4078C47.7537 24.4078 48.0864 24.375 48.3692 24.2929V27.2146C47.9868 27.3295 47.4545 27.3788 46.7892 27.3788C43.8621 27.3788 42.3987 25.9015 42.3987 22.9305L42.3985 8.01007Z" fill="white"/>
<path fill-rule="evenodd" clip-rule="evenodd" d="M59.5785 15.2487V13.2626H62.8881V22.8484C62.8881 24.0138 63.1709 24.4571 63.9027 24.4571C64.0295 24.4571 64.1764 24.4438 64.3307 24.4299C64.4192 24.422 64.5101 24.4138 64.6011 24.4078V27.0506C64.2353 27.1818 63.6864 27.2639 62.9713 27.2639C62.173 27.2639 61.541 27.1325 61.042 26.8207C60.4267 26.4103 60.0442 25.8686 59.9112 25.1628C58.9465 26.6073 57.35 27.3131 55.1381 27.3131C53.1756 27.3131 51.5291 26.6401 50.1653 25.2449C48.8349 23.8496 48.1696 22.159 48.1696 20.1238C48.1696 18.0884 48.8349 16.3977 50.1653 15.0353C51.5125 13.6402 53.1756 12.9672 55.1381 12.9672C57.3666 12.9672 59.0463 13.952 59.5785 15.2487ZM59.828 20.1238C59.828 21.322 59.4123 22.3396 58.5806 23.1275C57.7823 23.9153 56.7679 24.3258 55.5705 24.3258C54.373 24.3258 53.4084 23.9153 52.6101 23.1275C51.8284 22.3232 51.4459 21.322 51.4459 20.1238C51.4459 18.9255 51.845 17.9079 52.6101 17.12C53.425 16.3321 54.3896 15.9217 55.5703 15.9217C56.7513 15.9217 57.7823 16.3321 58.5806 17.12C59.4121 17.9241 59.828 18.9255 59.828 20.1238Z" fill="white"/>
<path fill-rule="evenodd" clip-rule="evenodd" d="M9.95126 22.6842L1.43616 32.7626C0.17216 34.2564 0.271945 36.4722 1.66894 37.8509L2.7 38.8687C4.26335 40.4116 6.80795 40.3296 8.27152 38.7045L11.3483 35.2576C12.5125 32.9925 13.1611 30.4318 13.1611 27.7236C13.1611 24.3751 12.1633 21.2727 10.4668 18.6629C11.0987 19.9432 10.9325 21.5352 9.95126 22.6842Z" fill="#49691F"/>
<path d="M65.7487 29.7424C66.1646 29.8738 66.68 29.9559 67.2954 29.9559C67.8276 29.9559 68.2101 29.8409 68.5095 29.6603C68.8088 29.4799 69.0914 29.053 69.3077 28.495L69.6737 27.5102L63.8526 13.2626H67.1789L71.2702 23.6199L75.112 13.2626H78.4549L72.2181 29.2337C71.8024 30.3007 71.3035 31.1213 70.7213 31.6794C69.8899 32.4345 68.7922 32.8284 67.3785 32.8284C66.7631 32.8284 66.2144 32.7463 65.7487 32.6149V29.7424Z" fill="white"/>
</g>
<defs>
<clipPath id="clip0_40_257">
<rect width="78" height="40" fill="white" transform="translate(0.488281)"/>
</clipPath>
</defs>
</svg>
