<svg width="174" height="48" viewBox="0 0 174 48" fill="none" xmlns="http://www.w3.org/2000/svg">
<g filter="url(#filter0_d_40_171)">
<path d="M170 8.40131H169.215V6.44208L168.431 7.73518H168.038L167.646 6.44208V8.40131H166.862V5.07062H167.646L168.431 6.87311L169.215 5.07062H170V8.40131ZM166.47 5.65839H165.685V8.40131H164.901V5.65839H164.116V5.07062H166.47V5.65839ZM162.155 18.0015H159.802V10.4781L157.056 15.3762H155.487L153.134 10.4781V18.0015H150.388V5.07062H153.134L156.272 12.0455L159.802 5.07062H162.155V18.0015ZM146.858 18.0015H144.112L143.328 15.7288H139.013L138.229 18.0015H135.483L140.19 5.07062H142.151L146.858 18.0015ZM142.936 13.5737L141.367 8.87153L139.798 13.5737H142.936ZM131.561 18.0015H122.932V5.07062H131.561V7.30415H125.678V10.3605H130.777V12.5941H125.678V15.768H131.561V18.0015ZM119.01 7.30415H115.872V18.0015H113.126V7.30415H109.596V5.07062H119.01V7.30415ZM106.458 14.2006C106.458 16.8652 104.105 18.0799 101.752 18.1191C99.3982 18.1191 97.8293 17.5705 97.0448 16.395L98.6137 14.7884C99.3982 15.4937 100.183 15.8856 101.752 15.8856C103.32 15.8856 104.105 15.337 104.105 14.279C104.105 13.2994 103.32 12.8684 102.536 12.7116L100.967 12.5157C98.6137 12.2022 97.437 10.9875 97.437 8.87153C97.437 7.69599 97.8293 6.75556 98.6137 6.01105C99.3982 5.30573 100.575 4.95307 101.752 4.95307C103.713 4.95307 104.889 5.46247 106.066 6.44208L104.497 8.04865C103.713 7.46088 102.928 7.14741 101.752 7.14741C100.575 7.22578 99.7904 7.65681 99.7904 8.79316C99.7904 9.69441 100.575 10.1254 101.359 10.2038L102.928 10.4389C104.889 10.674 106.458 12.0063 106.458 14.2006ZM86.4546 11.8496C86.4546 15.3762 83.3168 18.2367 79.7867 18.2367C76.2566 18.2367 73.511 15.3762 73.511 11.8496C73.511 8.36213 76.2566 5.50165 79.7867 5.50165C83.3168 5.50165 86.4546 8.36213 86.4546 11.8496ZM79.7867 0.0158081C73.511 0.0158081 68.0198 5.26654 68.0198 11.8104L60.5674 22.4294C60.1752 22.3898 60.1752 22.351 59.783 22.351C58.214 22.351 56.6451 22.8212 55.0762 23.6049L21.5798 10.1254C20.6776 6.12861 17.1083 3.15058 12.8722 3.15058C8.00859 3.15058 4 7.14741 4 12.0455C4 16.9044 8.00859 20.9012 12.8722 20.9012C14.5592 20.9012 16.0885 20.4702 17.4225 19.6473L51.1543 33.1268C51.9388 37.2412 55.4688 39.9841 59.7834 39.9841C64.0979 39.9841 68.0202 36.4575 68.4124 32.108L79.7871 23.8009C86.455 23.8009 91.9462 18.4718 91.9462 11.8887C91.9458 5.34491 86.4546 0.0158081 79.7867 0.0158081ZM79.7867 3.93427C84.4935 3.93427 88.0235 7.50007 88.0235 11.8887C88.0235 16.3166 84.4935 19.8824 79.7867 19.8824C75.4722 19.8824 71.9421 16.3166 71.9421 11.8887C71.9421 7.50007 75.4722 3.93427 79.7867 3.93427ZM12.8722 5.50165C15.3825 5.50165 17.579 6.87311 18.6776 8.9499L15.4217 7.65681C12.7938 6.71638 9.8913 8.00947 8.83227 10.5957C7.81248 13.221 8.98917 16.1599 11.5387 17.2962L14.2843 18.3934C13.8524 18.5109 13.3821 18.5501 12.8719 18.5501C9.26373 18.5501 6.36083 15.6505 6.36083 12.0455C6.36122 8.40131 9.26373 5.50165 12.8722 5.50165ZM59.783 24.7021C63.313 24.7021 66.0586 27.641 66.0586 31.2459C66.0586 34.8901 63.313 37.633 59.783 37.633C57.0373 37.633 55.0762 36.4575 53.8995 34.3023C55.0762 34.8901 55.8607 35.282 57.0373 35.6738C59.783 36.8493 62.5286 35.282 63.7053 32.7741C64.4897 30.3451 63.7053 27.0144 60.9597 25.9564L58.214 24.8592C58.6063 24.7805 59.3907 24.7021 59.783 24.7021Z" fill="white"/>
</g>
<defs>
<filter id="filter0_d_40_171" x="0" y="0" width="174" height="48" filterUnits="userSpaceOnUse" color-interpolation-filters="sRGB">
<feFlood flood-opacity="0" result="BackgroundImageFix"/>
<feColorMatrix in="SourceAlpha" type="matrix" values="0 0 0 0 0 0 0 0 0 0 0 0 0 0 0 0 0 0 127 0" result="hardAlpha"/>
<feOffset dy="4"/>
<feGaussianBlur stdDeviation="2"/>
<feComposite in2="hardAlpha" operator="out"/>
<feColorMatrix type="matrix" values="0 0 0 0 0 0 0 0 0 0 0 0 0 0 0 0 0 0 0.25 0"/>
<feBlend mode="normal" in2="BackgroundImageFix" result="effect1_dropShadow_40_171"/>
<feBlend mode="normal" in="SourceGraphic" in2="effect1_dropShadow_40_171" result="shape"/>
</filter>
</defs>
</svg>
