<svg id="Layer_1" data-name="Layer 1" xmlns="http://www.w3.org/2000/svg" viewBox="0 0 37.33 37.67"><defs><style>.cls-1{fill:#fff;}.cls-2{fill:#7158e2;stroke:#fff;stroke-width:1.5px;}</style></defs><path class="cls-1" d="M22,14c4.05,0,7.33,3.33,7.33,8,0,9.33-10,14.67-13.33,16.67C12.67,36.67,2.67,31.33,2.67,22c0-4.67,3.33-8,7.33-8a8.79,8.79,0,0,1,6,2.67A8.79,8.79,0,0,1,22,14Z" transform="translate(-2.67 -1)"/><circle class="cls-2" cx="26.83" cy="10.5" r="9.75"/><path class="cls-1" d="M27.26,8.42V15h-1V9.35h-.75V8.42ZM31.42,15a2.6,2.6,0,0,1-1.44-.4,2.69,2.69,0,0,1-1-1.17,4.28,4.28,0,0,1-.35-1.78,3.69,3.69,0,0,1,.73-2.48,2.51,2.51,0,0,1,2-.85,2.54,2.54,0,0,1,1.43.4,2.62,2.62,0,0,1,1,1.16,4.27,4.27,0,0,1,.35,1.77,4.35,4.35,0,0,1-.35,1.8,2.62,2.62,0,0,1-1,1.16A2.46,2.46,0,0,1,31.42,15Zm0-.93a1.47,1.47,0,0,0,1.3-.66,3.11,3.11,0,0,0,.47-1.78,3,3,0,0,0-.47-1.73,1.62,1.62,0,0,0-2.59,0,3.1,3.1,0,0,0-.46,1.75,3.17,3.17,0,0,0,.46,1.77A1.48,1.48,0,0,0,31.41,14.1Z" transform="translate(-2.67 -1)"/></svg>