<svg width="133" height="40" viewBox="0 0 133 40" fill="none" xmlns="http://www.w3.org/2000/svg">
<g clip-path="url(#clip0_40_230)">
<path d="M129.257 32.1455L121.234 21.3667L113.332 32.1455H110.101L119.673 19.0925L110.931 7.23474H114.162L121.228 16.9346L128.416 7.23474H131.648L122.91 19.0925L132.489 32.1455H129.257ZM85.5442 20.0498C85.0629 19.5685 84.4652 19.2088 83.8676 18.9708C85.6658 18.0135 86.8611 16.0989 86.8611 13.9411C86.8611 12.3861 86.2635 7.23474 78.8378 7.23474H68.7783V18.0135H65.4252C64.9439 18.6112 63.9866 19.9281 63.627 20.5311H68.7783V32.1455H78.8378C84.3489 32.1455 87.7021 29.39 87.7021 24.8415C87.6968 22.9216 86.9828 21.2451 85.5442 20.0498ZM71.5339 9.86862H78.8378C80.8741 9.86862 84.1056 10.3499 84.1056 13.8194C84.1056 16.4533 82.191 18.0135 78.8378 18.0135H71.5339V9.86862ZM78.8378 29.5116H71.5339V20.4094H78.8378C81.5934 20.4094 84.9465 21.1287 84.9465 24.7199C84.9465 28.914 81.1121 29.5116 78.8378 29.5116Z" fill="white"/>
<path d="M100.754 6.63791C93.8095 6.63791 88.8961 12.0273 88.8961 19.6909C88.8961 27.3546 93.8042 32.6223 100.754 32.6223C107.703 32.6223 112.612 27.2329 112.612 19.6909C112.606 12.0273 107.815 6.63791 100.754 6.63791ZM100.754 29.9884C95.4861 29.9884 91.7733 25.678 91.7733 19.6909C91.7733 13.5822 95.4861 9.39343 100.754 9.39343C106.022 9.39343 109.734 13.7039 109.734 19.6909C109.851 25.7996 106.138 29.9884 100.754 29.9884ZM67.3385 32.1463L57.8767 19.0933L66.4976 7.23556H63.2661L56.2001 16.9354L49.1341 7.23556H45.781L54.5235 19.0933L44.9453 32.1463H48.2985L56.2001 21.3675L64.1017 32.1463H67.3385Z" fill="white"/>
<path d="M40.6253 19.9974C40.6253 31.0141 31.5231 39.9947 20.3846 39.9947C9.24619 39.9947 0.265625 31.0194 0.265625 19.9974C0.265625 8.97527 9.36783 0 20.5063 0C31.6447 0 40.6253 8.98056 40.6253 19.9974Z" fill="#666666"/>
<path d="M40.6253 19.9988C40.6253 31.0156 31.5231 39.9962 20.3846 39.9962C9.24619 39.9962 0.265625 31.0156 0.265625 19.9988C0.265625 8.98204 9.36783 -0.0038147 20.5063 -0.0038147C31.6447 -0.0038147 40.6253 8.98204 40.6253 19.9988Z" fill="url(#paint0_radial_40_230)"/>
<path d="M40.6253 19.9988C40.6253 31.0156 31.5231 39.9962 20.3846 39.9962C9.24619 39.9962 0.265625 31.0156 0.265625 19.9988C0.265625 8.98204 9.36783 -0.0038147 20.5063 -0.0038147C31.6447 -0.0038147 40.6253 8.98204 40.6253 19.9988Z" fill="url(#paint1_radial_40_230)"/>
<path d="M40.6253 19.9988C40.6253 31.0156 31.5231 39.9962 20.3846 39.9962C9.24619 39.9962 0.265625 31.0156 0.265625 19.9988C0.265625 8.98204 9.36783 -0.0038147 20.5063 -0.0038147C31.6447 -0.0038147 40.6253 8.98204 40.6253 19.9988Z" fill="url(#paint2_radial_40_230)"/>
<path d="M15.3761 11.2921C13.2023 14.0476 3.79338 24.9586 4.63961 32.3896C5.24254 33.1089 5.84548 33.8281 6.57006 34.4258C6.44841 28.7931 13.2076 22.6791 18.3961 18.0037L15.3761 11.2921Z" fill="#00A54D"/>
<path d="M15.3761 11.2921C13.2023 14.0476 3.79338 24.9586 4.63961 32.3896C5.24254 33.1089 5.84548 33.8281 6.57006 34.4258C6.44841 28.7931 13.2076 22.6791 18.3961 18.0037L15.3761 11.2921Z" fill="url(#paint3_linear_40_230)"/>
<path d="M9.9025 3.06239C8.69663 3.78168 7.60711 4.61733 6.64453 5.45826C9.9025 6.05591 13.0388 8.93308 14.8476 11.2126C16.4184 13.6085 17.2594 15.7663 18.3489 18.0459C19.0735 17.4482 19.798 16.8506 20.6443 16.126V6.29391C18.1056 4.86062 14.2447 2.94074 9.9025 3.06239Z" fill="#02A74D"/>
<path d="M9.9025 3.05813C8.69663 3.77742 7.6124 4.61836 6.64453 5.454C9.9025 6.05165 13.0388 8.92881 14.8476 11.2083C16.4184 13.6042 17.2594 15.7621 18.3489 18.0416C19.0735 17.444 19.798 16.841 20.639 16.1217V6.29494C18.1056 4.85636 14.2447 2.94177 9.9025 3.05813Z" fill="url(#paint4_linear_40_230)"/>
<path d="M25.6051 11.2979C27.7683 14.0587 37.1508 24.975 36.3045 32.4112C35.7016 33.1305 35.104 33.8497 34.3794 34.4527C34.501 28.8147 27.7683 22.6954 22.5957 18.0201L25.6051 11.2979Z" fill="#00A54D"/>
<path d="M25.6057 11.2979C27.7688 14.0587 37.1513 24.975 36.3104 32.4112C35.7075 33.1305 35.1098 33.8497 34.3852 34.4527C34.5069 28.8147 27.7688 22.6954 22.6016 18.0201L25.6057 11.2979Z" fill="url(#paint5_linear_40_230)"/>
<path d="M31.0569 3.05665C32.2575 3.77594 33.3417 4.61688 34.3043 5.45782C31.0569 6.05546 27.9311 8.93792 26.1276 11.2174C24.5674 13.6186 23.7212 15.7765 22.6422 18.056C21.9176 17.4531 21.1984 16.8554 20.3574 16.1361V6.29875C22.7639 4.85488 26.7306 2.93501 31.0569 3.05665Z" fill="#02A74D"/>
<path d="M31.0622 3.05665C32.2627 3.77594 33.347 4.61688 34.3096 5.45782C31.0622 6.05546 27.9311 8.93792 26.1276 11.2174C24.5621 13.6186 23.7212 15.7765 22.6422 18.056C21.9229 17.4583 21.1984 16.8554 20.3574 16.1361V6.29875C22.7639 4.85488 26.7306 2.93501 31.0622 3.05665Z" fill="url(#paint6_linear_40_230)"/>
</g>
<defs>
<radialGradient id="paint0_radial_40_230" cx="0" cy="0" r="1" gradientUnits="userSpaceOnUse" gradientTransform="translate(20.1283 17.8728) rotate(90) scale(29.1033 25.8433)">
<stop stop-color="white"/>
<stop offset="1" stop-color="white" stop-opacity="0"/>
</radialGradient>
<radialGradient id="paint1_radial_40_230" cx="0" cy="0" r="1" gradientUnits="userSpaceOnUse" gradientTransform="translate(20.1283 17.8728) rotate(90) scale(29.1033 25.8433)">
<stop stop-color="white"/>
<stop offset="1" stop-color="white" stop-opacity="0"/>
</radialGradient>
<radialGradient id="paint2_radial_40_230" cx="0" cy="0" r="1" gradientUnits="userSpaceOnUse" gradientTransform="translate(20.1283 17.8728) rotate(90) scale(29.1033 25.8433)">
<stop stop-color="white"/>
<stop offset="1" stop-color="white" stop-opacity="0"/>
</radialGradient>
<linearGradient id="paint3_linear_40_230" x1="13.199" y1="25.5408" x2="8.46402" y2="19.9115" gradientUnits="userSpaceOnUse">
<stop stop-color="#97CA43"/>
<stop offset="1" stop-color="#97CA43" stop-opacity="0"/>
</linearGradient>
<linearGradient id="paint4_linear_40_230" x1="12.9905" y1="12.217" x2="17.2993" y2="2.52613" gradientUnits="userSpaceOnUse">
<stop stop-color="#97CA43"/>
<stop offset="1" stop-color="#97CA43" stop-opacity="0"/>
</linearGradient>
<linearGradient id="paint5_linear_40_230" x1="30.4578" y1="23.4176" x2="25.7079" y2="17.8174" gradientUnits="userSpaceOnUse">
<stop stop-color="#97CA43"/>
<stop offset="1" stop-color="#97CA43" stop-opacity="0"/>
</linearGradient>
<linearGradient id="paint6_linear_40_230" x1="24.8822" y1="9.84504" x2="28.5929" y2="3.76871" gradientUnits="userSpaceOnUse">
<stop stop-color="#97CA43"/>
<stop offset="1" stop-color="#97CA43" stop-opacity="0"/>
</linearGradient>
<clipPath id="clip0_40_230">
<rect width="132.223" height="40" fill="white" transform="translate(0.265625)"/>
</clipPath>
</defs>
</svg>
