<?xml version="1.0" encoding="UTF-8" standalone="no"?>
<!DOCTYPE svg PUBLIC "-//W3C//DTD SVG 1.1//EN"
 "http://www.w3.org/Graphics/SVG/1.1/DTD/svg11.dtd">
<!-- Generated by graphviz version 5.0.0 (20220707.1540)
 -->
<!-- Title: dependencies Pages: 1 -->
<svg width="1026pt" height="174pt"
 viewBox="0.00 0.00 1026.00 173.80" xmlns="http://www.w3.org/2000/svg" xmlns:xlink="http://www.w3.org/1999/xlink">
<g id="graph0" class="graph" transform="scale(1 1) rotate(0) translate(4 169.8)">
<title>dependencies</title>
<polygon fill="white" stroke="transparent" points="-4,4 -4,-169.8 1022,-169.8 1022,4 -4,4"/>
<text text-anchor="middle" x="509" y="-8.2" font-family="sans-serif" font-size="14.00">dependencies</text>
<g id="clust1" class="cluster">
<title>cluster_AuthModule</title>
<polygon fill="none" stroke="black" stroke-dasharray="1,5" points="8,-32.8 8,-157.8 1010,-157.8 1010,-32.8 8,-32.8"/>
</g>
<g id="clust9" class="cluster">
<title>cluster_AuthModule_imports</title>
<polygon fill="none" stroke="black" points="854,-40.8 854,-92.8 1002,-92.8 1002,-40.8 854,-40.8"/>
</g>
<g id="clust2" class="cluster">
<title>cluster_AuthModule_declarations</title>
<polygon fill="none" stroke="black" points="16,-40.8 16,-92.8 846,-92.8 846,-40.8 16,-40.8"/>
</g>
<!-- AccountComponent -->
<g id="node1" class="node">
<title>AccountComponent</title>
<polygon fill="#ffffb3" stroke="black" points="838.26,-84.8 709.74,-84.8 709.74,-48.8 838.26,-48.8 838.26,-84.8"/>
<text text-anchor="middle" x="774" y="-62.6" font-family="Times,serif" font-size="14.00">AccountComponent</text>
</g>
<!-- AuthModule -->
<g id="node7" class="node">
<title>AuthModule</title>
<polygon fill="#8dd3c7" stroke="black" points="545.55,-149.8 542.55,-153.8 521.55,-153.8 518.55,-149.8 458.45,-149.8 458.45,-113.8 545.55,-113.8 545.55,-149.8"/>
<text text-anchor="middle" x="502" y="-127.6" font-family="Times,serif" font-size="14.00">AuthModule</text>
</g>
<!-- AccountComponent&#45;&gt;AuthModule -->
<g id="edge1" class="edge">
<title>AccountComponent&#45;&gt;AuthModule</title>
<path fill="none" stroke="black" d="M774,-84.91C774,-104.14 774,-131.8 774,-131.8 774,-131.8 555.7,-131.8 555.7,-131.8"/>
<polygon fill="black" stroke="black" points="555.7,-128.3 545.7,-131.8 555.7,-135.3 555.7,-128.3"/>
</g>
<!-- LoginComponent -->
<g id="node2" class="node">
<title>LoginComponent</title>
<polygon fill="#ffffb3" stroke="black" points="691.27,-84.8 576.73,-84.8 576.73,-48.8 691.27,-48.8 691.27,-84.8"/>
<text text-anchor="middle" x="634" y="-62.6" font-family="Times,serif" font-size="14.00">LoginComponent</text>
</g>
<!-- LoginComponent&#45;&gt;AuthModule -->
<g id="edge2" class="edge">
<title>LoginComponent&#45;&gt;AuthModule</title>
<path fill="none" stroke="black" d="M634,-84.83C634,-101.2 634,-122.8 634,-122.8 634,-122.8 555.59,-122.8 555.59,-122.8"/>
<polygon fill="black" stroke="black" points="555.59,-119.3 545.59,-122.8 555.59,-126.3 555.59,-119.3"/>
</g>
<!-- OrderComponent -->
<g id="node3" class="node">
<title>OrderComponent</title>
<polygon fill="#ffffb3" stroke="black" points="558.98,-84.8 445.02,-84.8 445.02,-48.8 558.98,-48.8 558.98,-84.8"/>
<text text-anchor="middle" x="502" y="-62.6" font-family="Times,serif" font-size="14.00">OrderComponent</text>
</g>
<!-- OrderComponent&#45;&gt;AuthModule -->
<g id="edge3" class="edge">
<title>OrderComponent&#45;&gt;AuthModule</title>
<path fill="none" stroke="black" d="M502,-84.91C502,-84.91 502,-103.79 502,-103.79"/>
<polygon fill="black" stroke="black" points="498.5,-103.79 502,-113.79 505.5,-103.79 498.5,-103.79"/>
</g>
<!-- OrdersComponent -->
<g id="node4" class="node">
<title>OrdersComponent</title>
<polygon fill="#ffffb3" stroke="black" points="426.93,-84.8 307.07,-84.8 307.07,-48.8 426.93,-48.8 426.93,-84.8"/>
<text text-anchor="middle" x="367" y="-62.6" font-family="Times,serif" font-size="14.00">OrdersComponent</text>
</g>
<!-- OrdersComponent&#45;&gt;AuthModule -->
<g id="edge4" class="edge">
<title>OrdersComponent&#45;&gt;AuthModule</title>
<path fill="none" stroke="black" d="M367,-84.83C367,-101.2 367,-122.8 367,-122.8 367,-122.8 448.17,-122.8 448.17,-122.8"/>
<polygon fill="black" stroke="black" points="448.17,-126.3 458.17,-122.8 448.17,-119.3 448.17,-126.3"/>
</g>
<!-- ProfileComponent -->
<g id="node5" class="node">
<title>ProfileComponent</title>
<polygon fill="#ffffb3" stroke="black" points="289.94,-84.8 170.06,-84.8 170.06,-48.8 289.94,-48.8 289.94,-84.8"/>
<text text-anchor="middle" x="230" y="-62.6" font-family="Times,serif" font-size="14.00">ProfileComponent</text>
</g>
<!-- ProfileComponent&#45;&gt;AuthModule -->
<g id="edge5" class="edge">
<title>ProfileComponent&#45;&gt;AuthModule</title>
<path fill="none" stroke="black" d="M230,-84.91C230,-104.14 230,-131.8 230,-131.8 230,-131.8 448.3,-131.8 448.3,-131.8"/>
<polygon fill="black" stroke="black" points="448.3,-135.3 458.3,-131.8 448.3,-128.3 448.3,-135.3"/>
</g>
<!-- RegisterComponent -->
<g id="node6" class="node">
<title>RegisterComponent</title>
<polygon fill="#ffffb3" stroke="black" points="151.99,-84.8 24.01,-84.8 24.01,-48.8 151.99,-48.8 151.99,-84.8"/>
<text text-anchor="middle" x="88" y="-62.6" font-family="Times,serif" font-size="14.00">RegisterComponent</text>
</g>
<!-- RegisterComponent&#45;&gt;AuthModule -->
<g id="edge6" class="edge">
<title>RegisterComponent&#45;&gt;AuthModule</title>
<path fill="none" stroke="black" d="M88,-85.09C88,-107.01 88,-140.8 88,-140.8 88,-140.8 448.09,-140.8 448.09,-140.8"/>
<polygon fill="black" stroke="black" points="448.09,-144.3 458.09,-140.8 448.09,-137.3 448.09,-144.3"/>
</g>
<!-- AuthRoutingModule -->
<g id="node8" class="node">
<title>AuthRoutingModule</title>
<polygon fill="#8dd3c7" stroke="black" points="994.17,-84.8 991.17,-88.8 970.17,-88.8 967.17,-84.8 861.83,-84.8 861.83,-48.8 994.17,-48.8 994.17,-84.8"/>
<text text-anchor="middle" x="928" y="-62.6" font-family="Times,serif" font-size="14.00">AuthRoutingModule</text>
</g>
<!-- AuthRoutingModule&#45;&gt;AuthModule -->
<g id="edge7" class="edge">
<title>AuthRoutingModule&#45;&gt;AuthModule</title>
<path fill="none" stroke="black" d="M928,-85.09C928,-107.01 928,-140.8 928,-140.8 928,-140.8 555.59,-140.8 555.59,-140.8"/>
<polygon fill="black" stroke="black" points="555.59,-137.3 545.59,-140.8 555.59,-144.3 555.59,-137.3"/>
</g>
</g>
</svg>
