<?xml version="1.0" encoding="utf-8"?>
<!-- Generator: Adobe Illustrator 25.4.1, SVG Export Plug-In . SVG Version: 6.00 Build 0)  -->
<svg version="1.1" id="Layer_1" xmlns="http://www.w3.org/2000/svg" xmlns:xlink="http://www.w3.org/1999/xlink" x="0px" y="0px"
	 viewBox="0 0 37 41" style="enable-background:new 0 0 37 41;" xml:space="preserve">
<style type="text/css">
	.st0{fill:#FFFFFF;}
	.st1{fill:#7158E2;stroke:#FFFFFF;stroke-width:1.5;}
</style>
<path class="st0" d="M26.7,38.3H5.3c-0.4,0-0.7-0.1-0.9-0.4C4.1,37.7,4,37.4,4,37V13c0-0.4,0.1-0.7,0.4-0.9c0.3-0.2,0.6-0.4,0.9-0.4
	h21.3c0.4,0,0.7,0.1,0.9,0.4c0.2,0.3,0.4,0.6,0.4,0.9v24c0,0.4-0.1,0.7-0.4,0.9C27.4,38.2,27,38.3,26.7,38.3z M12,17H9.3v2.7
	c0,1.8,0.7,3.5,2,4.7c1.3,1.3,2.9,2,4.7,2s3.5-0.7,4.7-2c1.3-1.3,2-2.9,2-4.7V17H20v2.7c0,1.1-0.4,2.1-1.2,2.8
	c-0.8,0.8-1.8,1.2-2.8,1.2s-2.1-0.4-2.8-1.2c-0.8-0.8-1.2-1.8-1.2-2.8V17z"/>
<circle class="st1" cx="26.5" cy="11.5" r="9.8"/>
</svg>
