<svg id="Layer_1" data-name="Layer 1" xmlns="http://www.w3.org/2000/svg" viewBox="0 0 32 31.91"><defs><style>.cls-1{fill:#fff;}</style></defs><path class="cls-1" d="M30.57,7.38l-13-6.8a3.78,3.78,0,0,0-3.09,0l-13,6.8A2.75,2.75,0,0,0,0,9.55V22.86A2.77,2.77,0,0,0,1.43,25l13,6.8a3.78,3.78,0,0,0,3.09,0l13-6.8A2.77,2.77,0,0,0,32,22.86V9.55A2.75,2.75,0,0,0,30.57,7.38Zm-2,16.19L16.48,29.89a1.13,1.13,0,0,1-1,0L3.41,23.57c-1.23-.65-1.23-1.7,0-2.35l7.35-3.83a1.13,1.13,0,0,1,1,0l1.86,1c.35.18.35.48,0,.67l-5.82,3c-.36.18-.36.49,0,.67l7.48,3.91a1.88,1.88,0,0,0,1.54,0l7.49-3.91c.35-.18.35-.49,0-.67l-1.85-1a1.21,1.21,0,0,0-.95,0l-5,2.6a1.16,1.16,0,0,1-1,0l-1.85-1c-.36-.18-.36-.49,0-.67l7.49-3.9a1.83,1.83,0,0,1,1.55,0l5.87,3.06C29.83,21.87,29.83,22.92,28.59,23.57Zm0-12.39L16.48,17.51a1.21,1.21,0,0,1-1,0L3.41,11.18c-1.23-.64-1.23-1.7,0-2.34L15.53,2.51a1.21,1.21,0,0,1,1,0l1.85,1c.36.19.36.49,0,.67L7.75,9.68c-.36.18-.36.48,0,.67l7.48,3.9a1.88,1.88,0,0,0,1.54,0l7.49-3.9c.35-.19.35-.49,0-.67l-1.85-1a1.13,1.13,0,0,0-.95,0l-5,2.6a1.13,1.13,0,0,1-1,0l-1.85-1c-.36-.19-.36-.49,0-.67l7.49-3.91a1.9,1.9,0,0,1,1.55,0l5.87,3.07C29.83,9.48,29.83,10.54,28.59,11.18Z" transform="translate(0 -0.25)"/></svg>