<svg width="265" height="40" viewBox="0 0 265 40" fill="none" xmlns="http://www.w3.org/2000/svg">
<g clip-path="url(#clip0_40_247)">
<path fill-rule="evenodd" clip-rule="evenodd" d="M28.9861 8.40884L28.9516 39.8443L20.4746 37.1051V0.155731L31.2949 2.99808C38.2211 4.84759 42.4597 8.44282 42.3907 14.7437C42.3219 22.0721 38.9104 25.0167 32.2597 23.0991V8.64806C32.2597 6.9016 28.9861 6.79935 28.9861 8.40884Z" fill="#DE0029"/>
<path fill-rule="evenodd" clip-rule="evenodd" d="M16.5807 31.009L12.5833 32.3447C9.99852 33.2352 7.79337 31.1464 10.1711 30.2899L12.1007 29.6055L4.82957 27.3107C2.58955 28.0644 0.487377 29.6738 0.6256 31.934C0.763454 34.2281 6.03561 34.7763 10.1022 35.427C13.8926 36.043 17.3386 35.7007 20.4748 34.6049V32.2418L16.5807 31.009ZM29.0208 39.8442L36.4297 37.2757L28.952 34.9132V39.6727L29.0208 39.8442Z" fill="#F3C202"/>
<path fill-rule="evenodd" clip-rule="evenodd" d="M48.7328 32.9614L48.8705 32.927C52.1098 31.7973 53.4883 30.2215 53.1438 28.7495C52.5924 26.2841 48.6295 24.9483 42.5299 24.503C38.1536 24.195 33.8462 25.1536 29.6421 26.5917L28.9528 26.8316L36.4996 29.1602L40.9104 27.6875C45.5281 26.8316 47.3893 28.3382 42.9437 29.7423L40.7381 30.4953L48.7328 32.9614ZM20.4758 22.0721L17.1328 23.2018L20.4758 24.2292V22.0721Z" fill="#326DB3"/>
<path fill-rule="evenodd" clip-rule="evenodd" d="M36.43 37.2758L48.7322 32.9614L40.7374 30.4953L28.9523 34.5018V34.9133L36.43 37.2758ZM20.4753 29.7077L16.5813 31.0089L20.4753 32.2417V29.7077ZM28.9523 31.7287V26.8316L36.499 29.1602L28.9523 31.7287ZM12.1011 29.6056L20.4752 26.6263V24.2293L17.1323 23.2018L5.00229 27.2768C4.96779 27.2768 4.89893 27.3107 4.83008 27.3107L12.1011 29.6056Z" fill="#00AA9E"/>
</g>
<g clip-path="url(#clip1_40_247)">
<path d="M77.4883 4.04879V30.0024H81.5629V6.53627H85.3343C85.3343 6.53627 88.0745 6.53627 89.0126 7.75474C89.8098 8.78982 89.9554 10.6675 89.9554 11.9354C89.9554 13.2924 89.8691 15.3892 89.4112 16.1569C88.7163 17.3299 87.5755 17.565 86.5322 17.565H84.0427V19.8685H87.6228C87.6228 19.8685 90.853 20.0025 92.2422 18.5984C93.9455 16.8768 94.3783 14.5625 94.3783 11.4641C94.3783 8.64901 93.3511 5.80893 91.2515 4.84426C89.5134 4.04935 86.3798 4.04935 86.3798 4.04935L77.4883 4.04879ZM97.5804 30.003H101.654V4.04935H97.5804V30.003ZM123.331 10.1026L130.785 29.5294L126.505 39.9518H129.887L142.211 10.1026H138.435L133.067 24.651L128.072 10.1026H123.331ZM145.279 29.8485V27.3957C145.279 27.3957 149.588 27.5638 150.485 27.5638C152.473 27.5638 153.466 27.1425 154.214 26.3453C154.655 25.8672 155.054 23.7499 155.054 22.9953C155.054 22.2436 154.908 20.618 154.612 19.952C154.307 19.2996 153.613 18.6904 152.572 18.6024C151.829 18.5388 150.682 18.3894 149.34 18.3281C147.458 18.2395 146.215 17.2635 145.616 16.5617C145.022 15.8594 144.227 14.8016 144.227 11.5652C144.227 8.3248 145.069 6.50845 145.914 5.66585C146.76 4.81871 147.996 4.44737 148.946 4.27988C150.039 4.09421 151.824 4.08285 151.824 4.08285L157.527 4.24808V6.70093C157.527 6.70093 153.369 6.5357 152.474 6.5357C150.485 6.5357 149.889 6.95927 149.144 7.75418C148.704 8.22714 148.361 9.53647 148.361 10.2865C148.361 11.04 148.449 12.5622 148.748 13.2208C149.043 13.8738 149.741 14.4847 150.784 14.5779C151.524 14.6346 152.674 14.784 154.013 14.8447C155.903 14.9333 157.145 15.9071 157.737 16.6117C158.336 17.3157 159.133 18.7994 159.133 22.0329C159.133 25.2739 158.283 27.5887 157.443 28.4336C156.596 29.2756 155.362 29.6521 154.412 29.815C153.316 30.0024 151.531 30.0166 151.531 30.0166L145.279 29.8485ZM167.51 6.53513H163.438V25.589C163.438 25.589 163.535 27.3281 163.636 27.9396C163.736 28.5511 164.631 30.003 166.965 30.003L171.185 29.9212V27.4775C171.185 27.4775 170.042 27.5592 169.353 27.5592C168.653 27.5592 167.806 27.5138 167.662 26.3385C167.509 25.1654 167.509 23.7636 167.509 23.7636V12.544H172.11V10.1026H167.509V6.5357L167.51 6.53513ZM206.829 30.003H210.902V10.1037H206.829V30.003ZM206.829 7.66106H210.902V4.04822H206.829V7.66106ZM223.774 9.93278C226.546 9.93278 228.696 10.5488 229.851 11.4772C231.016 12.4083 232.449 14.3718 232.449 20.0536C232.449 25.736 231.016 27.6972 229.851 28.6306C228.695 29.559 226.546 30.1796 223.774 30.1796C220.995 30.1796 218.854 29.559 217.691 28.6306C216.527 27.6972 215.101 25.736 215.101 20.0536C215.101 14.3718 216.527 12.4078 217.691 11.4772C218.854 10.5488 220.995 9.93278 223.774 9.93278ZM220.982 13.7483C220.421 14.4353 219.738 15.8775 219.738 20.0536C219.738 24.228 220.421 25.6725 220.981 26.3561C221.54 27.0363 222.569 27.4956 223.901 27.4956C225.236 27.4956 226.261 27.0357 226.826 26.3566C227.384 25.6725 228.067 24.2274 228.067 20.0542C228.067 15.8775 227.384 14.4348 226.826 13.7489C226.261 13.0675 225.236 12.6116 223.901 12.6116C222.569 12.6116 221.54 13.067 220.981 13.7489L220.982 13.7483ZM240.887 12.8972L244.882 12.7297C245.927 12.7297 247.157 13.0102 247.754 13.7625C248.31 14.4711 248.66 15.316 248.66 16.677V29.9803H252.739V16.342C252.739 13.7625 251.94 12.263 250.742 11.321C249.034 9.97366 245.973 10.1026 245.973 10.1026L236.847 10.2655V29.9803H240.887V12.8972ZM198.716 6.53513H194.642V25.589C194.642 25.589 194.738 27.3281 194.836 27.9396C194.938 28.5511 195.826 30.003 198.17 30.003L202.39 29.9212V27.4775C202.39 27.4775 201.244 27.5592 200.552 27.5592C199.86 27.5592 199.011 27.5138 198.862 26.3385C198.717 25.1654 198.717 23.7636 198.717 23.7636V12.544H203.306V10.1026H198.717L198.716 6.53513ZM117.115 16.677C117.115 15.316 116.767 14.4711 116.206 13.7625C115.61 13.0102 114.385 12.7291 113.336 12.7291L107.963 12.8972V10.2655L114.43 10.1026C114.43 10.1026 117.49 9.97309 119.201 11.321C120.394 12.2636 121.187 13.7625 121.187 16.342V29.7901L113.38 29.9576C113.38 29.9576 109.845 29.9701 108.064 29.2535C106.329 28.5511 105.381 26.6241 105.381 23.9492C105.381 21.3675 106.176 19.868 107.37 18.926C109.08 17.5764 112.138 17.7098 112.138 17.7098H114.633V20.002H113.234C112.186 20.002 111.11 20.1944 110.51 20.9462C109.952 21.648 109.653 22.2578 109.653 23.6188C109.653 25.4056 110.002 26.2022 110.847 26.8097C111.594 27.3508 112.931 27.4684 114.423 27.4684L117.115 27.3054V16.677ZM185.811 16.677C185.811 15.316 185.471 14.4711 184.91 13.7625C184.306 13.0102 183.081 12.7291 182.041 12.7291L176.67 12.8972V10.2655L183.131 10.1026C183.131 10.1026 186.19 9.97309 187.898 11.321C189.092 12.2636 189.889 13.7625 189.889 16.342V29.7901L182.081 29.9576C182.081 29.9576 178.542 29.9701 176.765 29.2535C175.028 28.5511 174.078 26.6241 174.078 23.9492C174.078 21.3675 174.88 19.868 176.066 18.926C177.775 17.5764 180.84 17.7098 180.84 17.7098H183.332V20.002H181.931C180.89 20.002 179.806 20.1944 179.214 20.9462C178.654 21.648 178.353 22.2578 178.353 23.6188C178.353 25.4056 178.704 26.2022 179.547 26.8097C180.291 27.3508 181.635 27.4684 183.127 27.4684L185.812 27.3054L185.811 16.677ZM260.123 30.1659C260.646 30.1671 261.163 30.0657 261.646 29.8674C262.13 29.6692 262.569 29.378 262.938 29.0107C263.308 28.6433 263.601 28.2069 263.801 27.7266C264.001 27.2464 264.103 26.7316 264.102 26.2119C264.103 25.692 264.001 25.177 263.801 24.6966C263.601 24.2161 263.308 23.7798 262.938 23.4127C262.569 23.0449 262.13 22.7534 261.647 22.5551C261.163 22.3568 260.646 22.2556 260.123 22.2572C257.939 22.2572 256.146 24.031 256.146 26.2119C256.146 27.2668 256.556 28.2616 257.315 29.0111C257.683 29.3777 258.121 29.6684 258.603 29.8665C259.085 30.0647 259.601 30.1665 260.123 30.1659ZM256.814 26.2119C256.814 25.3329 257.162 24.5062 257.784 23.8856C258.091 23.5792 258.455 23.336 258.856 23.1701C259.258 23.0041 259.688 22.9187 260.123 22.9187C261.007 22.9187 261.84 23.265 262.464 23.8856C262.772 24.1907 263.016 24.5532 263.183 24.9524C263.349 25.3516 263.435 25.7796 263.435 26.2119C263.435 28.0259 261.952 29.505 260.123 29.505C259.688 29.5049 259.258 29.4195 258.857 29.2539C258.456 29.0883 258.091 28.8456 257.784 28.5398C257.476 28.2344 257.232 27.8715 257.065 27.4721C256.899 27.0726 256.813 26.6443 256.813 26.2119" fill="white"/>
<path d="M262.087 28.0487C262.028 28.026 261.982 27.9578 261.957 27.8556C261.933 27.7463 261.92 27.6348 261.918 27.5229L261.9 26.9545C261.891 26.6877 261.834 26.4969 261.738 26.3697C261.677 26.2845 261.584 26.2164 261.477 26.1528C261.608 26.0665 261.727 25.9626 261.811 25.8314C261.923 25.6543 261.982 25.4306 261.982 25.1586C261.982 24.6379 261.761 24.2706 261.331 24.0781C261.102 23.9759 260.827 23.9305 260.49 23.9305H258.434V28.3337H259.199V26.5281H260.408C260.627 26.5281 260.791 26.5508 260.884 26.5923C261.041 26.6689 261.125 26.8251 261.135 27.0635L261.169 27.7676C261.178 27.9396 261.187 28.0481 261.201 28.1117C261.221 28.1798 261.232 28.2338 261.258 28.2792L261.289 28.3337H262.143V28.0753L262.086 28.0481L262.087 28.0487ZM261.201 25.2131C261.201 25.4595 261.137 25.6231 261.014 25.7133C260.873 25.8065 260.677 25.8581 260.431 25.8581H259.199V24.6135H260.506C260.681 24.6135 260.827 24.6379 260.932 24.6879C261.114 24.7788 261.201 24.9548 261.201 25.2131Z" fill="white"/>
</g>
<defs>
<clipPath id="clip0_40_247">
<rect width="53" height="40" fill="white" transform="translate(0.488281)"/>
</clipPath>
<clipPath id="clip1_40_247">
<rect width="187" height="36" fill="white" transform="translate(77.4883 4)"/>
</clipPath>
</defs>
</svg>
