<?xml version="1.0" encoding="UTF-8" standalone="no"?>
<!DOCTYPE svg PUBLIC "-//W3C//DTD SVG 1.1//EN"
 "http://www.w3.org/Graphics/SVG/1.1/DTD/svg11.dtd">
<!-- Generated by graphviz version 5.0.0 (20220707.1540)
 -->
<!-- Title: dependencies Pages: 1 -->
<svg width="1136pt" height="174pt"
 viewBox="0.00 0.00 1136.00 173.80" xmlns="http://www.w3.org/2000/svg" xmlns:xlink="http://www.w3.org/1999/xlink">
<g id="graph0" class="graph" transform="scale(1 1) rotate(0) translate(4 169.8)">
<title>dependencies</title>
<polygon fill="white" stroke="transparent" points="-4,4 -4,-169.8 1132,-169.8 1132,4 -4,4"/>
<text text-anchor="middle" x="564" y="-8.2" font-family="sans-serif" font-size="14.00">dependencies</text>
<g id="clust1" class="cluster">
<title>cluster_ShopModule</title>
<polygon fill="none" stroke="black" stroke-dasharray="1,5" points="8,-32.8 8,-157.8 1120,-157.8 1120,-32.8 8,-32.8"/>
</g>
<g id="clust10" class="cluster">
<title>cluster_ShopModule_imports</title>
<polygon fill="none" stroke="black" points="962,-40.8 962,-92.8 1112,-92.8 1112,-40.8 962,-40.8"/>
</g>
<g id="clust2" class="cluster">
<title>cluster_ShopModule_declarations</title>
<polygon fill="none" stroke="black" points="16,-40.8 16,-92.8 954,-92.8 954,-40.8 16,-40.8"/>
</g>
<!-- CartComponent -->
<g id="node1" class="node">
<title>CartComponent</title>
<polygon fill="#ffffb3" stroke="black" points="945.94,-84.8 840.06,-84.8 840.06,-48.8 945.94,-48.8 945.94,-84.8"/>
<text text-anchor="middle" x="893" y="-62.6" font-family="Times,serif" font-size="14.00">CartComponent</text>
</g>
<!-- ShopModule -->
<g id="node8" class="node">
<title>ShopModule</title>
<polygon fill="#8dd3c7" stroke="black" points="638.34,-149.8 635.34,-153.8 614.34,-153.8 611.34,-149.8 549.66,-149.8 549.66,-113.8 638.34,-113.8 638.34,-149.8"/>
<text text-anchor="middle" x="594" y="-127.6" font-family="Times,serif" font-size="14.00">ShopModule</text>
</g>
<!-- CartComponent&#45;&gt;ShopModule -->
<g id="edge1" class="edge">
<title>CartComponent&#45;&gt;ShopModule</title>
<path fill="none" stroke="black" d="M893,-84.91C893,-104.14 893,-131.8 893,-131.8 893,-131.8 648.44,-131.8 648.44,-131.8"/>
<polygon fill="black" stroke="black" points="648.44,-128.3 638.44,-131.8 648.44,-135.3 648.44,-128.3"/>
</g>
<!-- FreePipe -->
<g id="node2" class="node">
<title>FreePipe</title>
<polygon fill="#ffffb3" stroke="black" points="821.77,-84.8 756.23,-84.8 756.23,-48.8 821.77,-48.8 821.77,-84.8"/>
<text text-anchor="middle" x="789" y="-62.6" font-family="Times,serif" font-size="14.00">FreePipe</text>
</g>
<!-- FreePipe&#45;&gt;ShopModule -->
<g id="edge2" class="edge">
<title>FreePipe&#45;&gt;ShopModule</title>
<path fill="none" stroke="black" d="M789,-84.83C789,-101.2 789,-122.8 789,-122.8 789,-122.8 648.25,-122.8 648.25,-122.8"/>
<polygon fill="black" stroke="black" points="648.25,-119.3 638.25,-122.8 648.25,-126.3 648.25,-119.3"/>
</g>
<!-- ProductComponent -->
<g id="node3" class="node">
<title>ProductComponent</title>
<polygon fill="#ffffb3" stroke="black" points="738.38,-84.8 613.62,-84.8 613.62,-48.8 738.38,-48.8 738.38,-84.8"/>
<text text-anchor="middle" x="676" y="-62.6" font-family="Times,serif" font-size="14.00">ProductComponent</text>
</g>
<!-- ProductComponent&#45;&gt;ShopModule -->
<g id="edge3" class="edge">
<title>ProductComponent&#45;&gt;ShopModule</title>
<path fill="none" stroke="black" d="M625.86,-84.91C625.86,-84.91 625.86,-103.79 625.86,-103.79"/>
<polygon fill="black" stroke="black" points="622.36,-103.79 625.86,-113.79 629.36,-103.79 622.36,-103.79"/>
</g>
<!-- ProductDetailsComponent -->
<g id="node4" class="node">
<title>ProductDetailsComponent</title>
<polygon fill="#ffffb3" stroke="black" points="595.04,-84.8 430.96,-84.8 430.96,-48.8 595.04,-48.8 595.04,-84.8"/>
<text text-anchor="middle" x="513" y="-62.6" font-family="Times,serif" font-size="14.00">ProductDetailsComponent</text>
</g>
<!-- ProductDetailsComponent&#45;&gt;ShopModule -->
<g id="edge4" class="edge">
<title>ProductDetailsComponent&#45;&gt;ShopModule</title>
<path fill="none" stroke="black" d="M572.55,-84.91C572.55,-84.91 572.55,-103.79 572.55,-103.79"/>
<polygon fill="black" stroke="black" points="569.05,-103.79 572.55,-113.79 576.05,-103.79 569.05,-103.79"/>
</g>
<!-- ProductListComponent -->
<g id="node5" class="node">
<title>ProductListComponent</title>
<polygon fill="#ffffb3" stroke="black" points="412.16,-84.8 265.84,-84.8 265.84,-48.8 412.16,-48.8 412.16,-84.8"/>
<text text-anchor="middle" x="339" y="-62.6" font-family="Times,serif" font-size="14.00">ProductListComponent</text>
</g>
<!-- ProductListComponent&#45;&gt;ShopModule -->
<g id="edge5" class="edge">
<title>ProductListComponent&#45;&gt;ShopModule</title>
<path fill="none" stroke="black" d="M339,-84.83C339,-101.2 339,-122.8 339,-122.8 339,-122.8 539.58,-122.8 539.58,-122.8"/>
<polygon fill="black" stroke="black" points="539.58,-126.3 549.58,-122.8 539.58,-119.3 539.58,-126.3"/>
</g>
<!-- StockPipe -->
<g id="node6" class="node">
<title>StockPipe</title>
<polygon fill="#ffffb3" stroke="black" points="247.28,-84.8 174.72,-84.8 174.72,-48.8 247.28,-48.8 247.28,-84.8"/>
<text text-anchor="middle" x="211" y="-62.6" font-family="Times,serif" font-size="14.00">StockPipe</text>
</g>
<!-- StockPipe&#45;&gt;ShopModule -->
<g id="edge6" class="edge">
<title>StockPipe&#45;&gt;ShopModule</title>
<path fill="none" stroke="black" d="M211,-84.91C211,-104.14 211,-131.8 211,-131.8 211,-131.8 539.69,-131.8 539.69,-131.8"/>
<polygon fill="black" stroke="black" points="539.69,-135.3 549.69,-131.8 539.69,-128.3 539.69,-135.3"/>
</g>
<!-- WishListComponent -->
<g id="node7" class="node">
<title>WishListComponent</title>
<polygon fill="#ffffb3" stroke="black" points="156.16,-84.8 23.84,-84.8 23.84,-48.8 156.16,-48.8 156.16,-84.8"/>
<text text-anchor="middle" x="90" y="-62.6" font-family="Times,serif" font-size="14.00">WishListComponent</text>
</g>
<!-- WishListComponent&#45;&gt;ShopModule -->
<g id="edge7" class="edge">
<title>WishListComponent&#45;&gt;ShopModule</title>
<path fill="none" stroke="black" d="M90,-85.09C90,-107.01 90,-140.8 90,-140.8 90,-140.8 539.72,-140.8 539.72,-140.8"/>
<polygon fill="black" stroke="black" points="539.72,-144.3 549.72,-140.8 539.72,-137.3 539.72,-144.3"/>
</g>
<!-- ShopRoutingModule -->
<g id="node9" class="node">
<title>ShopRoutingModule</title>
<polygon fill="#8dd3c7" stroke="black" points="1103.96,-84.8 1100.96,-88.8 1079.96,-88.8 1076.96,-84.8 970.04,-84.8 970.04,-48.8 1103.96,-48.8 1103.96,-84.8"/>
<text text-anchor="middle" x="1037" y="-62.6" font-family="Times,serif" font-size="14.00">ShopRoutingModule</text>
</g>
<!-- ShopRoutingModule&#45;&gt;ShopModule -->
<g id="edge8" class="edge">
<title>ShopRoutingModule&#45;&gt;ShopModule</title>
<path fill="none" stroke="black" d="M1037,-85.09C1037,-107.01 1037,-140.8 1037,-140.8 1037,-140.8 648.5,-140.8 648.5,-140.8"/>
<polygon fill="black" stroke="black" points="648.5,-137.3 638.5,-140.8 648.5,-144.3 648.5,-137.3"/>
</g>
</g>
</svg>
