<?xml version="1.0" encoding="UTF-8" standalone="no"?>
<!DOCTYPE svg PUBLIC "-//W3C//DTD SVG 1.1//EN"
 "http://www.w3.org/Graphics/SVG/1.1/DTD/svg11.dtd">
<!-- Generated by graphviz version 5.0.0 (20220707.1540)
 -->
<!-- Title: dependencies Pages: 1 -->
<svg width="1727pt" height="174pt"
 viewBox="0.00 0.00 1727.00 173.80" xmlns="http://www.w3.org/2000/svg" xmlns:xlink="http://www.w3.org/1999/xlink">
<g id="graph0" class="graph" transform="scale(1 1) rotate(0) translate(4 169.8)">
<title>dependencies</title>
<polygon fill="white" stroke="transparent" points="-4,4 -4,-169.8 1723,-169.8 1723,4 -4,4"/>
<text text-anchor="middle" x="859.5" y="-8.2" font-family="sans-serif" font-size="14.00">dependencies</text>
<g id="clust1" class="cluster">
<title>cluster_ShopModule</title>
<polygon fill="none" stroke="black" stroke-dasharray="1,5" points="8,-32.8 8,-157.8 1711,-157.8 1711,-32.8 8,-32.8"/>
</g>
<g id="clust2" class="cluster">
<title>cluster_ShopModule_declarations</title>
<polygon fill="none" stroke="black" points="174,-40.8 174,-92.8 1703,-92.8 1703,-40.8 174,-40.8"/>
</g>
<g id="clust15" class="cluster">
<title>cluster_ShopModule_imports</title>
<polygon fill="none" stroke="black" points="16,-40.8 16,-92.8 166,-92.8 166,-40.8 16,-40.8"/>
</g>
<!-- CartComponent -->
<g id="node1" class="node">
<title>CartComponent</title>
<polygon fill="#ffffb3" stroke="black" points="1694.94,-84.8 1589.06,-84.8 1589.06,-48.8 1694.94,-48.8 1694.94,-84.8"/>
<text text-anchor="middle" x="1642" y="-62.6" font-family="Times,serif" font-size="14.00">CartComponent</text>
</g>
<!-- ShopModule -->
<g id="node13" class="node">
<title>ShopModule</title>
<polygon fill="#8dd3c7" stroke="black" points="926.34,-149.8 923.34,-153.8 902.34,-153.8 899.34,-149.8 837.66,-149.8 837.66,-113.8 926.34,-113.8 926.34,-149.8"/>
<text text-anchor="middle" x="882" y="-127.6" font-family="Times,serif" font-size="14.00">ShopModule</text>
</g>
<!-- CartComponent&#45;&gt;ShopModule -->
<g id="edge1" class="edge">
<title>CartComponent&#45;&gt;ShopModule</title>
<path fill="none" stroke="black" d="M1642,-84.89C1642,-107.93 1642,-144.8 1642,-144.8 1642,-144.8 936.42,-144.8 936.42,-144.8"/>
<polygon fill="black" stroke="black" points="936.42,-141.3 926.42,-144.8 936.42,-148.3 936.42,-141.3"/>
</g>
<!-- CatPipePipe -->
<g id="node2" class="node">
<title>CatPipePipe</title>
<polygon fill="#ffffb3" stroke="black" points="1571.72,-84.8 1486.28,-84.8 1486.28,-48.8 1571.72,-48.8 1571.72,-84.8"/>
<text text-anchor="middle" x="1529" y="-62.6" font-family="Times,serif" font-size="14.00">CatPipePipe</text>
</g>
<!-- CatPipePipe&#45;&gt;ShopModule -->
<g id="edge2" class="edge">
<title>CatPipePipe&#45;&gt;ShopModule</title>
<path fill="none" stroke="black" d="M1529,-84.84C1529,-106.46 1529,-139.8 1529,-139.8 1529,-139.8 936.22,-139.8 936.22,-139.8"/>
<polygon fill="black" stroke="black" points="936.22,-136.3 926.22,-139.8 936.22,-143.3 936.22,-136.3"/>
</g>
<!-- EURToEGPPipe -->
<g id="node3" class="node">
<title>EURToEGPPipe</title>
<polygon fill="#ffffb3" stroke="black" points="1468.39,-84.8 1357.61,-84.8 1357.61,-48.8 1468.39,-48.8 1468.39,-84.8"/>
<text text-anchor="middle" x="1413" y="-62.6" font-family="Times,serif" font-size="14.00">EURToEGPPipe</text>
</g>
<!-- EURToEGPPipe&#45;&gt;ShopModule -->
<g id="edge3" class="edge">
<title>EURToEGPPipe&#45;&gt;ShopModule</title>
<path fill="none" stroke="black" d="M1413,-85.02C1413,-105.17 1413,-134.8 1413,-134.8 1413,-134.8 936.36,-134.8 936.36,-134.8"/>
<polygon fill="black" stroke="black" points="936.36,-131.3 926.36,-134.8 936.36,-138.3 936.36,-131.3"/>
</g>
<!-- FreePipe -->
<g id="node4" class="node">
<title>FreePipe</title>
<polygon fill="#ffffb3" stroke="black" points="1339.77,-84.8 1274.23,-84.8 1274.23,-48.8 1339.77,-48.8 1339.77,-84.8"/>
<text text-anchor="middle" x="1307" y="-62.6" font-family="Times,serif" font-size="14.00">FreePipe</text>
</g>
<!-- FreePipe&#45;&gt;ShopModule -->
<g id="edge4" class="edge">
<title>FreePipe&#45;&gt;ShopModule</title>
<path fill="none" stroke="black" d="M1307,-85.02C1307,-103.63 1307,-129.8 1307,-129.8 1307,-129.8 936.28,-129.8 936.28,-129.8"/>
<polygon fill="black" stroke="black" points="936.28,-126.3 926.28,-129.8 936.28,-133.3 936.28,-126.3"/>
</g>
<!-- PaymentComponent -->
<g id="node5" class="node">
<title>PaymentComponent</title>
<polygon fill="#ffffb3" stroke="black" points="1256.32,-84.8 1125.68,-84.8 1125.68,-48.8 1256.32,-48.8 1256.32,-84.8"/>
<text text-anchor="middle" x="1191" y="-62.6" font-family="Times,serif" font-size="14.00">PaymentComponent</text>
</g>
<!-- PaymentComponent&#45;&gt;ShopModule -->
<g id="edge5" class="edge">
<title>PaymentComponent&#45;&gt;ShopModule</title>
<path fill="none" stroke="black" d="M1191,-84.83C1191,-101.86 1191,-124.8 1191,-124.8 1191,-124.8 936.27,-124.8 936.27,-124.8"/>
<polygon fill="black" stroke="black" points="936.27,-121.3 926.27,-124.8 936.27,-128.3 936.27,-121.3"/>
</g>
<!-- ProductComponent -->
<g id="node6" class="node">
<title>ProductComponent</title>
<polygon fill="#ffffb3" stroke="black" points="1107.38,-84.8 982.62,-84.8 982.62,-48.8 1107.38,-48.8 1107.38,-84.8"/>
<text text-anchor="middle" x="1045" y="-62.6" font-family="Times,serif" font-size="14.00">ProductComponent</text>
</g>
<!-- ProductComponent&#45;&gt;ShopModule -->
<g id="edge6" class="edge">
<title>ProductComponent&#45;&gt;ShopModule</title>
<path fill="none" stroke="black" d="M1045,-85.04C1045,-100.37 1045,-119.8 1045,-119.8 1045,-119.8 936.54,-119.8 936.54,-119.8"/>
<polygon fill="black" stroke="black" points="936.54,-116.3 926.54,-119.8 936.54,-123.3 936.54,-116.3"/>
</g>
<!-- ProductDetailsComponent -->
<g id="node7" class="node">
<title>ProductDetailsComponent</title>
<polygon fill="#ffffb3" stroke="black" points="964.04,-84.8 799.96,-84.8 799.96,-48.8 964.04,-48.8 964.04,-84.8"/>
<text text-anchor="middle" x="882" y="-62.6" font-family="Times,serif" font-size="14.00">ProductDetailsComponent</text>
</g>
<!-- ProductDetailsComponent&#45;&gt;ShopModule -->
<g id="edge7" class="edge">
<title>ProductDetailsComponent&#45;&gt;ShopModule</title>
<path fill="none" stroke="black" d="M882,-84.91C882,-84.91 882,-103.79 882,-103.79"/>
<polygon fill="black" stroke="black" points="878.5,-103.79 882,-113.79 885.5,-103.79 878.5,-103.79"/>
</g>
<!-- ProductListComponent -->
<g id="node8" class="node">
<title>ProductListComponent</title>
<polygon fill="#ffffb3" stroke="black" points="781.16,-84.8 634.84,-84.8 634.84,-48.8 781.16,-48.8 781.16,-84.8"/>
<text text-anchor="middle" x="708" y="-62.6" font-family="Times,serif" font-size="14.00">ProductListComponent</text>
</g>
<!-- ProductListComponent&#45;&gt;ShopModule -->
<g id="edge8" class="edge">
<title>ProductListComponent&#45;&gt;ShopModule</title>
<path fill="none" stroke="black" d="M708,-85.04C708,-100.37 708,-119.8 708,-119.8 708,-119.8 827.64,-119.8 827.64,-119.8"/>
<polygon fill="black" stroke="black" points="827.64,-123.3 837.64,-119.8 827.64,-116.3 827.64,-123.3"/>
</g>
<!-- SafePipe -->
<g id="node9" class="node">
<title>SafePipe</title>
<polygon fill="#ffffb3" stroke="black" points="616.77,-84.8 551.23,-84.8 551.23,-48.8 616.77,-48.8 616.77,-84.8"/>
<text text-anchor="middle" x="584" y="-62.6" font-family="Times,serif" font-size="14.00">SafePipe</text>
</g>
<!-- SafePipe&#45;&gt;ShopModule -->
<g id="edge9" class="edge">
<title>SafePipe&#45;&gt;ShopModule</title>
<path fill="none" stroke="black" d="M584,-84.83C584,-101.86 584,-124.8 584,-124.8 584,-124.8 827.71,-124.8 827.71,-124.8"/>
<polygon fill="black" stroke="black" points="827.71,-128.3 837.71,-124.8 827.71,-121.3 827.71,-128.3"/>
</g>
<!-- SearchFilterPipe -->
<g id="node10" class="node">
<title>SearchFilterPipe</title>
<polygon fill="#ffffb3" stroke="black" points="532.81,-84.8 423.19,-84.8 423.19,-48.8 532.81,-48.8 532.81,-84.8"/>
<text text-anchor="middle" x="478" y="-62.6" font-family="Times,serif" font-size="14.00">SearchFilterPipe</text>
</g>
<!-- SearchFilterPipe&#45;&gt;ShopModule -->
<g id="edge10" class="edge">
<title>SearchFilterPipe&#45;&gt;ShopModule</title>
<path fill="none" stroke="black" d="M478,-85.02C478,-103.63 478,-129.8 478,-129.8 478,-129.8 827.61,-129.8 827.61,-129.8"/>
<polygon fill="black" stroke="black" points="827.61,-133.3 837.61,-129.8 827.61,-126.3 827.61,-133.3"/>
</g>
<!-- StockPipe -->
<g id="node11" class="node">
<title>StockPipe</title>
<polygon fill="#ffffb3" stroke="black" points="405.28,-84.8 332.72,-84.8 332.72,-48.8 405.28,-48.8 405.28,-84.8"/>
<text text-anchor="middle" x="369" y="-62.6" font-family="Times,serif" font-size="14.00">StockPipe</text>
</g>
<!-- StockPipe&#45;&gt;ShopModule -->
<g id="edge11" class="edge">
<title>StockPipe&#45;&gt;ShopModule</title>
<path fill="none" stroke="black" d="M369,-85.02C369,-105.17 369,-134.8 369,-134.8 369,-134.8 827.82,-134.8 827.82,-134.8"/>
<polygon fill="black" stroke="black" points="827.82,-138.3 837.82,-134.8 827.82,-131.3 827.82,-138.3"/>
</g>
<!-- WishListComponent -->
<g id="node12" class="node">
<title>WishListComponent</title>
<polygon fill="#ffffb3" stroke="black" points="314.16,-84.8 181.84,-84.8 181.84,-48.8 314.16,-48.8 314.16,-84.8"/>
<text text-anchor="middle" x="248" y="-62.6" font-family="Times,serif" font-size="14.00">WishListComponent</text>
</g>
<!-- WishListComponent&#45;&gt;ShopModule -->
<g id="edge12" class="edge">
<title>WishListComponent&#45;&gt;ShopModule</title>
<path fill="none" stroke="black" d="M248,-84.84C248,-106.46 248,-139.8 248,-139.8 248,-139.8 827.67,-139.8 827.67,-139.8"/>
<polygon fill="black" stroke="black" points="827.67,-143.3 837.67,-139.8 827.67,-136.3 827.67,-143.3"/>
</g>
<!-- ShopRoutingModule -->
<g id="node14" class="node">
<title>ShopRoutingModule</title>
<polygon fill="#8dd3c7" stroke="black" points="157.96,-84.8 154.96,-88.8 133.96,-88.8 130.96,-84.8 24.04,-84.8 24.04,-48.8 157.96,-48.8 157.96,-84.8"/>
<text text-anchor="middle" x="91" y="-62.6" font-family="Times,serif" font-size="14.00">ShopRoutingModule</text>
</g>
<!-- ShopRoutingModule&#45;&gt;ShopModule -->
<g id="edge13" class="edge">
<title>ShopRoutingModule&#45;&gt;ShopModule</title>
<path fill="none" stroke="black" d="M91,-84.89C91,-107.93 91,-144.8 91,-144.8 91,-144.8 827.78,-144.8 827.78,-144.8"/>
<polygon fill="black" stroke="black" points="827.78,-148.3 837.78,-144.8 827.78,-141.3 827.78,-148.3"/>
</g>
</g>
</svg>
