<?xml version="1.0" encoding="UTF-8" standalone="no"?>
<!DOCTYPE svg PUBLIC "-//W3C//DTD SVG 1.1//EN"
 "http://www.w3.org/Graphics/SVG/1.1/DTD/svg11.dtd">
<!-- Generated by graphviz version 5.0.0 (20220707.1540)
 -->
<!-- Title: dependencies Pages: 1 -->
<svg width="466pt" height="174pt"
 viewBox="0.00 0.00 466.00 173.80" xmlns="http://www.w3.org/2000/svg" xmlns:xlink="http://www.w3.org/1999/xlink">
<g id="graph0" class="graph" transform="scale(1 1) rotate(0) translate(4 169.8)">
<title>dependencies</title>
<polygon fill="white" stroke="transparent" points="-4,4 -4,-169.8 462,-169.8 462,4 -4,4"/>
<text text-anchor="middle" x="229" y="-8.2" font-family="sans-serif" font-size="14.00">dependencies</text>
<g id="clust1" class="cluster">
<title>cluster_HomeModule</title>
<polygon fill="none" stroke="black" stroke-dasharray="1,5" points="8,-32.8 8,-157.8 450,-157.8 450,-32.8 8,-32.8"/>
</g>
<g id="clust5" class="cluster">
<title>cluster_HomeModule_imports</title>
<polygon fill="none" stroke="black" points="288,-40.8 288,-92.8 442,-92.8 442,-40.8 288,-40.8"/>
</g>
<g id="clust2" class="cluster">
<title>cluster_HomeModule_declarations</title>
<polygon fill="none" stroke="black" points="16,-40.8 16,-92.8 280,-92.8 280,-40.8 16,-40.8"/>
</g>
<!-- HomeComponent -->
<g id="node1" class="node">
<title>HomeComponent</title>
<polygon fill="#ffffb3" stroke="black" points="271.55,-84.8 156.45,-84.8 156.45,-48.8 271.55,-48.8 271.55,-84.8"/>
<text text-anchor="middle" x="214" y="-62.6" font-family="Times,serif" font-size="14.00">HomeComponent</text>
</g>
<!-- HomeModule -->
<g id="node3" class="node">
<title>HomeModule</title>
<polygon fill="#8dd3c7" stroke="black" points="260.77,-149.8 257.77,-153.8 236.77,-153.8 233.77,-149.8 167.23,-149.8 167.23,-113.8 260.77,-113.8 260.77,-149.8"/>
<text text-anchor="middle" x="214" y="-127.6" font-family="Times,serif" font-size="14.00">HomeModule</text>
</g>
<!-- HomeComponent&#45;&gt;HomeModule -->
<g id="edge1" class="edge">
<title>HomeComponent&#45;&gt;HomeModule</title>
<path fill="none" stroke="black" d="M214,-84.91C214,-84.91 214,-103.79 214,-103.79"/>
<polygon fill="black" stroke="black" points="210.5,-103.79 214,-113.79 217.5,-103.79 210.5,-103.79"/>
</g>
<!-- SliderComponent -->
<g id="node2" class="node">
<title>SliderComponent</title>
<polygon fill="#ffffb3" stroke="black" points="138.27,-84.8 23.73,-84.8 23.73,-48.8 138.27,-48.8 138.27,-84.8"/>
<text text-anchor="middle" x="81" y="-62.6" font-family="Times,serif" font-size="14.00">SliderComponent</text>
</g>
<!-- SliderComponent&#45;&gt;HomeModule -->
<g id="edge2" class="edge">
<title>SliderComponent&#45;&gt;HomeModule</title>
<path fill="none" stroke="black" d="M81,-84.91C81,-104.14 81,-131.8 81,-131.8 81,-131.8 157.11,-131.8 157.11,-131.8"/>
<polygon fill="black" stroke="black" points="157.11,-135.3 167.11,-131.8 157.11,-128.3 157.11,-135.3"/>
</g>
<!-- HomeRoutingModule -->
<g id="node4" class="node">
<title>HomeRoutingModule</title>
<polygon fill="#8dd3c7" stroke="black" points="434.38,-84.8 431.38,-88.8 410.38,-88.8 407.38,-84.8 295.62,-84.8 295.62,-48.8 434.38,-48.8 434.38,-84.8"/>
<text text-anchor="middle" x="365" y="-62.6" font-family="Times,serif" font-size="14.00">HomeRoutingModule</text>
</g>
<!-- HomeRoutingModule&#45;&gt;HomeModule -->
<g id="edge3" class="edge">
<title>HomeRoutingModule&#45;&gt;HomeModule</title>
<path fill="none" stroke="black" d="M365,-84.91C365,-104.14 365,-131.8 365,-131.8 365,-131.8 270.95,-131.8 270.95,-131.8"/>
<polygon fill="black" stroke="black" points="270.95,-128.3 260.95,-131.8 270.95,-135.3 270.95,-128.3"/>
</g>
</g>
</svg>
