<?xml version="1.0" encoding="UTF-8" standalone="no"?>
<!DOCTYPE svg PUBLIC "-//W3C//DTD SVG 1.1//EN"
 "http://www.w3.org/Graphics/SVG/1.1/DTD/svg11.dtd">
<!-- Generated by graphviz version 5.0.0 (20220707.1540)
 -->
<!-- Title: dependencies Pages: 1 -->
<svg width="899pt" height="174pt"
 viewBox="0.00 0.00 899.00 173.80" xmlns="http://www.w3.org/2000/svg" xmlns:xlink="http://www.w3.org/1999/xlink">
<g id="graph0" class="graph" transform="scale(1 1) rotate(0) translate(4 169.8)">
<title>dependencies</title>
<polygon fill="white" stroke="transparent" points="-4,4 -4,-169.8 895,-169.8 895,4 -4,4"/>
<text text-anchor="middle" x="445.5" y="-8.2" font-family="sans-serif" font-size="14.00">dependencies</text>
<g id="clust1" class="cluster">
<title>cluster_HomeModule</title>
<polygon fill="none" stroke="black" stroke-dasharray="1,5" points="8,-32.8 8,-157.8 883,-157.8 883,-32.8 8,-32.8"/>
</g>
<g id="clust2" class="cluster">
<title>cluster_HomeModule_declarations</title>
<polygon fill="none" stroke="black" points="178,-40.8 178,-92.8 875,-92.8 875,-40.8 178,-40.8"/>
</g>
<g id="clust8" class="cluster">
<title>cluster_HomeModule_imports</title>
<polygon fill="none" stroke="black" points="16,-40.8 16,-92.8 170,-92.8 170,-40.8 16,-40.8"/>
</g>
<!-- CardComponent -->
<g id="node1" class="node">
<title>CardComponent</title>
<polygon fill="#ffffb3" stroke="black" points="867.05,-84.8 758.95,-84.8 758.95,-48.8 867.05,-48.8 867.05,-84.8"/>
<text text-anchor="middle" x="813" y="-62.6" font-family="Times,serif" font-size="14.00">CardComponent</text>
</g>
<!-- HomeModule -->
<g id="node6" class="node">
<title>HomeModule</title>
<polygon fill="#8dd3c7" stroke="black" points="495.77,-149.8 492.77,-153.8 471.77,-153.8 468.77,-149.8 402.23,-149.8 402.23,-113.8 495.77,-113.8 495.77,-149.8"/>
<text text-anchor="middle" x="449" y="-127.6" font-family="Times,serif" font-size="14.00">HomeModule</text>
</g>
<!-- CardComponent&#45;&gt;HomeModule -->
<g id="edge1" class="edge">
<title>CardComponent&#45;&gt;HomeModule</title>
<path fill="none" stroke="black" d="M813,-85.08C813,-106.12 813,-137.8 813,-137.8 813,-137.8 505.84,-137.8 505.84,-137.8"/>
<polygon fill="black" stroke="black" points="505.84,-134.3 495.84,-137.8 505.84,-141.3 505.84,-134.3"/>
</g>
<!-- CardListComponent -->
<g id="node2" class="node">
<title>CardListComponent</title>
<polygon fill="#ffffb3" stroke="black" points="741.32,-84.8 610.68,-84.8 610.68,-48.8 741.32,-48.8 741.32,-84.8"/>
<text text-anchor="middle" x="676" y="-62.6" font-family="Times,serif" font-size="14.00">CardListComponent</text>
</g>
<!-- CardListComponent&#45;&gt;HomeModule -->
<g id="edge2" class="edge">
<title>CardListComponent&#45;&gt;HomeModule</title>
<path fill="none" stroke="black" d="M676,-84.82C676,-102.17 676,-125.8 676,-125.8 676,-125.8 506.03,-125.8 506.03,-125.8"/>
<polygon fill="black" stroke="black" points="506.03,-122.3 496.03,-125.8 506.03,-129.3 506.03,-122.3"/>
</g>
<!-- CategoriesComponent -->
<g id="node3" class="node">
<title>CategoriesComponent</title>
<polygon fill="#ffffb3" stroke="black" points="592.7,-84.8 451.3,-84.8 451.3,-48.8 592.7,-48.8 592.7,-84.8"/>
<text text-anchor="middle" x="522" y="-62.6" font-family="Times,serif" font-size="14.00">CategoriesComponent</text>
</g>
<!-- CategoriesComponent&#45;&gt;HomeModule -->
<g id="edge3" class="edge">
<title>CategoriesComponent&#45;&gt;HomeModule</title>
<path fill="none" stroke="black" d="M473.64,-84.91C473.64,-84.91 473.64,-103.79 473.64,-103.79"/>
<polygon fill="black" stroke="black" points="470.14,-103.79 473.64,-113.79 477.14,-103.79 470.14,-103.79"/>
</g>
<!-- HomeComponent -->
<g id="node4" class="node">
<title>HomeComponent</title>
<polygon fill="#ffffb3" stroke="black" points="433.55,-84.8 318.45,-84.8 318.45,-48.8 433.55,-48.8 433.55,-84.8"/>
<text text-anchor="middle" x="376" y="-62.6" font-family="Times,serif" font-size="14.00">HomeComponent</text>
</g>
<!-- HomeComponent&#45;&gt;HomeModule -->
<g id="edge4" class="edge">
<title>HomeComponent&#45;&gt;HomeModule</title>
<path fill="none" stroke="black" d="M417.94,-84.91C417.94,-84.91 417.94,-103.79 417.94,-103.79"/>
<polygon fill="black" stroke="black" points="414.44,-103.79 417.94,-113.79 421.44,-103.79 414.44,-103.79"/>
</g>
<!-- SliderComponent -->
<g id="node5" class="node">
<title>SliderComponent</title>
<polygon fill="#ffffb3" stroke="black" points="300.27,-84.8 185.73,-84.8 185.73,-48.8 300.27,-48.8 300.27,-84.8"/>
<text text-anchor="middle" x="243" y="-62.6" font-family="Times,serif" font-size="14.00">SliderComponent</text>
</g>
<!-- SliderComponent&#45;&gt;HomeModule -->
<g id="edge5" class="edge">
<title>SliderComponent&#45;&gt;HomeModule</title>
<path fill="none" stroke="black" d="M243,-84.82C243,-102.17 243,-125.8 243,-125.8 243,-125.8 392,-125.8 392,-125.8"/>
<polygon fill="black" stroke="black" points="392,-129.3 402,-125.8 392,-122.3 392,-129.3"/>
</g>
<!-- HomeRoutingModule -->
<g id="node7" class="node">
<title>HomeRoutingModule</title>
<polygon fill="#8dd3c7" stroke="black" points="162.38,-84.8 159.38,-88.8 138.38,-88.8 135.38,-84.8 23.62,-84.8 23.62,-48.8 162.38,-48.8 162.38,-84.8"/>
<text text-anchor="middle" x="93" y="-62.6" font-family="Times,serif" font-size="14.00">HomeRoutingModule</text>
</g>
<!-- HomeRoutingModule&#45;&gt;HomeModule -->
<g id="edge6" class="edge">
<title>HomeRoutingModule&#45;&gt;HomeModule</title>
<path fill="none" stroke="black" d="M93,-85.08C93,-106.12 93,-137.8 93,-137.8 93,-137.8 392.09,-137.8 392.09,-137.8"/>
<polygon fill="black" stroke="black" points="392.09,-141.3 402.09,-137.8 392.09,-134.3 392.09,-141.3"/>
</g>
</g>
</svg>
