<?xml version="1.0" encoding="UTF-8" standalone="no"?>
<!DOCTYPE svg PUBLIC "-//W3C//DTD SVG 1.1//EN"
 "http://www.w3.org/Graphics/SVG/1.1/DTD/svg11.dtd">
<!-- Generated by graphviz version 5.0.0 (20220707.1540)
 -->
<!-- Title: dependencies Pages: 1 -->
<svg width="1340pt" height="247pt"
 viewBox="0.00 0.00 1340.00 246.80" xmlns="http://www.w3.org/2000/svg" xmlns:xlink="http://www.w3.org/1999/xlink">
<g id="graph0" class="graph" transform="scale(1 1) rotate(0) translate(4 242.8)">
<title>dependencies</title>
<polygon fill="white" stroke="transparent" points="-4,4 -4,-242.8 1336,-242.8 1336,4 -4,4"/>
<text text-anchor="middle" x="666" y="-8.2" font-family="sans-serif" font-size="14.00">dependencies</text>
<g id="clust1" class="cluster">
<title>cluster_AppModule</title>
<polygon fill="none" stroke="black" stroke-dasharray="1,5" points="8,-32.8 8,-230.8 1324,-230.8 1324,-32.8 8,-32.8"/>
</g>
<g id="clust7" class="cluster">
<title>cluster_AppModule_imports</title>
<polygon fill="none" stroke="black" points="738,-40.8 738,-92.8 1316,-92.8 1316,-40.8 738,-40.8"/>
</g>
<g id="clust9" class="cluster">
<title>cluster_AppModule_bootstrap</title>
<polygon fill="none" stroke="black" points="658,-170.8 658,-222.8 782,-222.8 782,-170.8 658,-170.8"/>
</g>
<g id="clust10" class="cluster">
<title>cluster_AppModule_providers</title>
<polygon fill="none" stroke="black" points="568,-40.8 568,-92.8 730,-92.8 730,-40.8 568,-40.8"/>
</g>
<g id="clust2" class="cluster">
<title>cluster_AppModule_declarations</title>
<polygon fill="none" stroke="black" points="16,-40.8 16,-92.8 560,-92.8 560,-40.8 16,-40.8"/>
</g>
<!-- AppComponent -->
<g id="node1" class="node">
<title>AppComponent</title>
<polygon fill="#ffffb3" stroke="black" points="551.94,-84.8 446.06,-84.8 446.06,-48.8 551.94,-48.8 551.94,-84.8"/>
<text text-anchor="middle" x="499" y="-62.6" font-family="Times,serif" font-size="14.00">AppComponent</text>
</g>
<!-- AppModule -->
<g id="node5" class="node">
<title>AppModule</title>
<polygon fill="#8dd3c7" stroke="black" points="761.66,-149.8 758.66,-153.8 737.66,-153.8 734.66,-149.8 678.34,-149.8 678.34,-113.8 761.66,-113.8 761.66,-149.8"/>
<text text-anchor="middle" x="720" y="-127.6" font-family="Times,serif" font-size="14.00">AppModule</text>
</g>
<!-- AppComponent&#45;&gt;AppModule -->
<g id="edge1" class="edge">
<title>AppComponent&#45;&gt;AppModule</title>
<path fill="none" stroke="black" d="M499,-84.81C499,-100.85 499,-121.8 499,-121.8 499,-121.8 668.17,-121.8 668.17,-121.8"/>
<polygon fill="black" stroke="black" points="668.17,-125.3 678.17,-121.8 668.17,-118.3 668.17,-125.3"/>
</g>
<!-- ChatbotComponent -->
<g id="node2" class="node">
<title>ChatbotComponent</title>
<polygon fill="#ffffb3" stroke="black" points="427.66,-84.8 302.34,-84.8 302.34,-48.8 427.66,-48.8 427.66,-84.8"/>
<text text-anchor="middle" x="365" y="-62.6" font-family="Times,serif" font-size="14.00">ChatbotComponent</text>
</g>
<!-- ChatbotComponent&#45;&gt;AppModule -->
<g id="edge2" class="edge">
<title>ChatbotComponent&#45;&gt;AppModule</title>
<path fill="none" stroke="black" d="M365,-85.07C365,-103.36 365,-128.8 365,-128.8 365,-128.8 668.23,-128.8 668.23,-128.8"/>
<polygon fill="black" stroke="black" points="668.23,-132.3 678.23,-128.8 668.23,-125.3 668.23,-132.3"/>
</g>
<!-- FooterComponent -->
<g id="node3" class="node">
<title>FooterComponent</title>
<polygon fill="#ffffb3" stroke="black" points="283.88,-84.8 166.12,-84.8 166.12,-48.8 283.88,-48.8 283.88,-84.8"/>
<text text-anchor="middle" x="225" y="-62.6" font-family="Times,serif" font-size="14.00">FooterComponent</text>
</g>
<!-- FooterComponent&#45;&gt;AppModule -->
<g id="edge3" class="edge">
<title>FooterComponent&#45;&gt;AppModule</title>
<path fill="none" stroke="black" d="M225,-84.93C225,-105.37 225,-135.8 225,-135.8 225,-135.8 668.22,-135.8 668.22,-135.8"/>
<polygon fill="black" stroke="black" points="668.22,-139.3 678.22,-135.8 668.22,-132.3 668.22,-139.3"/>
</g>
<!-- NavBarComponent -->
<g id="node4" class="node">
<title>NavBarComponent</title>
<polygon fill="#ffffb3" stroke="black" points="148.37,-84.8 23.63,-84.8 23.63,-48.8 148.37,-48.8 148.37,-84.8"/>
<text text-anchor="middle" x="86" y="-62.6" font-family="Times,serif" font-size="14.00">NavBarComponent</text>
</g>
<!-- NavBarComponent&#45;&gt;AppModule -->
<g id="edge4" class="edge">
<title>NavBarComponent&#45;&gt;AppModule</title>
<path fill="none" stroke="black" d="M86,-84.81C86,-107.29 86,-142.8 86,-142.8 86,-142.8 667.91,-142.8 667.91,-142.8"/>
<polygon fill="black" stroke="black" points="667.91,-146.3 677.91,-142.8 667.91,-139.3 667.91,-146.3"/>
</g>
<!-- AppComponent  -->
<g id="node11" class="node">
<title>AppComponent </title>
<polygon fill="#80b1d3" stroke="black" points="774.44,-214.8 665.56,-214.8 665.56,-178.8 774.44,-178.8 774.44,-214.8"/>
<text text-anchor="middle" x="720" y="-192.6" font-family="Times,serif" font-size="14.00">AppComponent </text>
</g>
<!-- AppModule&#45;&gt;AppComponent  -->
<g id="edge10" class="edge">
<title>AppModule&#45;&gt;AppComponent </title>
<path fill="none" stroke="black" stroke-dasharray="1,5" d="M720,-149.91C720,-149.91 720,-168.79 720,-168.79"/>
<polygon fill="black" stroke="black" points="716.5,-168.79 720,-178.79 723.5,-168.79 716.5,-168.79"/>
</g>
<!-- AppRoutingModule -->
<g id="node6" class="node">
<title>AppRoutingModule</title>
<polygon fill="#8dd3c7" stroke="black" points="1308.28,-84.8 1305.28,-88.8 1284.28,-88.8 1281.28,-84.8 1179.72,-84.8 1179.72,-48.8 1308.28,-48.8 1308.28,-84.8"/>
<text text-anchor="middle" x="1244" y="-62.6" font-family="Times,serif" font-size="14.00">AppRoutingModule</text>
</g>
<!-- AppRoutingModule&#45;&gt;AppModule -->
<g id="edge5" class="edge">
<title>AppRoutingModule&#45;&gt;AppModule</title>
<path fill="none" stroke="black" d="M1244,-84.81C1244,-107.29 1244,-142.8 1244,-142.8 1244,-142.8 772,-142.8 772,-142.8"/>
<polygon fill="black" stroke="black" points="772,-139.3 762,-142.8 772,-146.3 772,-139.3"/>
</g>
<!-- AuthModule -->
<g id="node7" class="node">
<title>AuthModule</title>
<polygon fill="#8dd3c7" stroke="black" points="1161.55,-84.8 1158.55,-88.8 1137.55,-88.8 1134.55,-84.8 1074.45,-84.8 1074.45,-48.8 1161.55,-48.8 1161.55,-84.8"/>
<text text-anchor="middle" x="1118" y="-62.6" font-family="Times,serif" font-size="14.00">AuthModule</text>
</g>
<!-- AuthModule&#45;&gt;AppModule -->
<g id="edge6" class="edge">
<title>AuthModule&#45;&gt;AppModule</title>
<path fill="none" stroke="black" d="M1118,-84.93C1118,-105.37 1118,-135.8 1118,-135.8 1118,-135.8 771.84,-135.8 771.84,-135.8"/>
<polygon fill="black" stroke="black" points="771.84,-132.3 761.84,-135.8 771.84,-139.3 771.84,-132.3"/>
</g>
<!-- HomeModule -->
<g id="node8" class="node">
<title>HomeModule</title>
<polygon fill="#8dd3c7" stroke="black" points="1055.77,-84.8 1052.77,-88.8 1031.77,-88.8 1028.77,-84.8 962.23,-84.8 962.23,-48.8 1055.77,-48.8 1055.77,-84.8"/>
<text text-anchor="middle" x="1009" y="-62.6" font-family="Times,serif" font-size="14.00">HomeModule</text>
</g>
<!-- HomeModule&#45;&gt;AppModule -->
<g id="edge7" class="edge">
<title>HomeModule&#45;&gt;AppModule</title>
<path fill="none" stroke="black" d="M1009,-85.07C1009,-103.36 1009,-128.8 1009,-128.8 1009,-128.8 771.71,-128.8 771.71,-128.8"/>
<polygon fill="black" stroke="black" points="771.71,-125.3 761.71,-128.8 771.71,-132.3 771.71,-125.3"/>
</g>
<!-- ShopModule -->
<g id="node9" class="node">
<title>ShopModule</title>
<polygon fill="#8dd3c7" stroke="black" points="944.34,-84.8 941.34,-88.8 920.34,-88.8 917.34,-84.8 855.66,-84.8 855.66,-48.8 944.34,-48.8 944.34,-84.8"/>
<text text-anchor="middle" x="900" y="-62.6" font-family="Times,serif" font-size="14.00">ShopModule</text>
</g>
<!-- ShopModule&#45;&gt;AppModule -->
<g id="edge8" class="edge">
<title>ShopModule&#45;&gt;AppModule</title>
<path fill="none" stroke="black" d="M900,-84.81C900,-100.85 900,-121.8 900,-121.8 900,-121.8 771.75,-121.8 771.75,-121.8"/>
<polygon fill="black" stroke="black" points="771.75,-118.3 761.75,-121.8 771.75,-125.3 771.75,-118.3"/>
</g>
<!-- StaticModule -->
<g id="node10" class="node">
<title>StaticModule</title>
<polygon fill="#8dd3c7" stroke="black" points="837.94,-84.8 834.94,-88.8 813.94,-88.8 810.94,-84.8 746.06,-84.8 746.06,-48.8 837.94,-48.8 837.94,-84.8"/>
<text text-anchor="middle" x="792" y="-62.6" font-family="Times,serif" font-size="14.00">StaticModule</text>
</g>
<!-- StaticModule&#45;&gt;AppModule -->
<g id="edge9" class="edge">
<title>StaticModule&#45;&gt;AppModule</title>
<path fill="none" stroke="black" d="M754.06,-84.91C754.06,-84.91 754.06,-103.79 754.06,-103.79"/>
<polygon fill="black" stroke="black" points="750.56,-103.79 754.06,-113.79 757.56,-103.79 750.56,-103.79"/>
</g>
<!-- AuthInterceptor -->
<g id="node12" class="node">
<title>AuthInterceptor</title>
<ellipse fill="#fdb462" stroke="black" cx="649" cy="-66.8" rx="72.92" ry="18"/>
<text text-anchor="middle" x="649" y="-62.6" font-family="Times,serif" font-size="14.00">AuthInterceptor</text>
</g>
<!-- AuthInterceptor&#45;&gt;AppModule -->
<g id="edge11" class="edge">
<title>AuthInterceptor&#45;&gt;AppModule</title>
<path fill="none" stroke="black" d="M699.94,-79.95C699.94,-79.95 699.94,-103.49 699.94,-103.49"/>
<polygon fill="black" stroke="black" points="696.44,-103.49 699.94,-113.49 703.44,-103.49 696.44,-103.49"/>
</g>
</g>
</svg>
