<?xml version="1.0" encoding="UTF-8" standalone="no"?>
<!DOCTYPE svg PUBLIC "-//W3C//DTD SVG 1.1//EN"
 "http://www.w3.org/Graphics/SVG/1.1/DTD/svg11.dtd">
<!-- Generated by graphviz version 5.0.0 (20220707.1540)
 -->
<!-- Title: dependencies Pages: 1 -->
<svg width="1196pt" height="247pt"
 viewBox="0.00 0.00 1196.00 246.80" xmlns="http://www.w3.org/2000/svg" xmlns:xlink="http://www.w3.org/1999/xlink">
<g id="graph0" class="graph" transform="scale(1 1) rotate(0) translate(4 242.8)">
<title>dependencies</title>
<polygon fill="white" stroke="transparent" points="-4,4 -4,-242.8 1192,-242.8 1192,4 -4,4"/>
<text text-anchor="middle" x="594" y="-8.2" font-family="sans-serif" font-size="14.00">dependencies</text>
<g id="clust1" class="cluster">
<title>cluster_AppModule</title>
<polygon fill="none" stroke="black" stroke-dasharray="1,5" points="8,-32.8 8,-230.8 1180,-230.8 1180,-32.8 8,-32.8"/>
</g>
<g id="clust8" class="cluster">
<title>cluster_AppModule_bootstrap</title>
<polygon fill="none" stroke="black" points="460,-170.8 460,-222.8 584,-222.8 584,-170.8 460,-170.8"/>
</g>
<g id="clust2" class="cluster">
<title>cluster_AppModule_declarations</title>
<polygon fill="none" stroke="black" points="772,-40.8 772,-92.8 1172,-92.8 1172,-40.8 772,-40.8"/>
</g>
<g id="clust9" class="cluster">
<title>cluster_AppModule_providers</title>
<polygon fill="none" stroke="black" points="602,-40.8 602,-92.8 764,-92.8 764,-40.8 602,-40.8"/>
</g>
<g id="clust6" class="cluster">
<title>cluster_AppModule_imports</title>
<polygon fill="none" stroke="black" points="16,-40.8 16,-92.8 594,-92.8 594,-40.8 16,-40.8"/>
</g>
<!-- AppComponent -->
<g id="node1" class="node">
<title>AppComponent</title>
<polygon fill="#ffffb3" stroke="black" points="1163.94,-84.8 1058.06,-84.8 1058.06,-48.8 1163.94,-48.8 1163.94,-84.8"/>
<text text-anchor="middle" x="1111" y="-62.6" font-family="Times,serif" font-size="14.00">AppComponent</text>
</g>
<!-- AppModule -->
<g id="node4" class="node">
<title>AppModule</title>
<polygon fill="#8dd3c7" stroke="black" points="563.66,-149.8 560.66,-153.8 539.66,-153.8 536.66,-149.8 480.34,-149.8 480.34,-113.8 563.66,-113.8 563.66,-149.8"/>
<text text-anchor="middle" x="522" y="-127.6" font-family="Times,serif" font-size="14.00">AppModule</text>
</g>
<!-- AppComponent&#45;&gt;AppModule -->
<g id="edge1" class="edge">
<title>AppComponent&#45;&gt;AppModule</title>
<path fill="none" stroke="black" d="M1111,-84.81C1111,-107.29 1111,-142.8 1111,-142.8 1111,-142.8 573.89,-142.8 573.89,-142.8"/>
<polygon fill="black" stroke="black" points="573.89,-139.3 563.89,-142.8 573.89,-146.3 573.89,-139.3"/>
</g>
<!-- FooterComponent -->
<g id="node2" class="node">
<title>FooterComponent</title>
<polygon fill="#ffffb3" stroke="black" points="1039.88,-84.8 922.12,-84.8 922.12,-48.8 1039.88,-48.8 1039.88,-84.8"/>
<text text-anchor="middle" x="981" y="-62.6" font-family="Times,serif" font-size="14.00">FooterComponent</text>
</g>
<!-- FooterComponent&#45;&gt;AppModule -->
<g id="edge2" class="edge">
<title>FooterComponent&#45;&gt;AppModule</title>
<path fill="none" stroke="black" d="M981,-84.93C981,-105.37 981,-135.8 981,-135.8 981,-135.8 573.95,-135.8 573.95,-135.8"/>
<polygon fill="black" stroke="black" points="573.95,-132.3 563.95,-135.8 573.95,-139.3 573.95,-132.3"/>
</g>
<!-- NavBarComponent -->
<g id="node3" class="node">
<title>NavBarComponent</title>
<polygon fill="#ffffb3" stroke="black" points="904.37,-84.8 779.63,-84.8 779.63,-48.8 904.37,-48.8 904.37,-84.8"/>
<text text-anchor="middle" x="842" y="-62.6" font-family="Times,serif" font-size="14.00">NavBarComponent</text>
</g>
<!-- NavBarComponent&#45;&gt;AppModule -->
<g id="edge3" class="edge">
<title>NavBarComponent&#45;&gt;AppModule</title>
<path fill="none" stroke="black" d="M842,-85.07C842,-103.36 842,-128.8 842,-128.8 842,-128.8 573.83,-128.8 573.83,-128.8"/>
<polygon fill="black" stroke="black" points="573.83,-125.3 563.83,-128.8 573.83,-132.3 573.83,-125.3"/>
</g>
<!-- AppComponent  -->
<g id="node10" class="node">
<title>AppComponent </title>
<polygon fill="#80b1d3" stroke="black" points="576.44,-214.8 467.56,-214.8 467.56,-178.8 576.44,-178.8 576.44,-214.8"/>
<text text-anchor="middle" x="522" y="-192.6" font-family="Times,serif" font-size="14.00">AppComponent </text>
</g>
<!-- AppModule&#45;&gt;AppComponent  -->
<g id="edge9" class="edge">
<title>AppModule&#45;&gt;AppComponent </title>
<path fill="none" stroke="black" stroke-dasharray="1,5" d="M522,-149.91C522,-149.91 522,-168.79 522,-168.79"/>
<polygon fill="black" stroke="black" points="518.5,-168.79 522,-178.79 525.5,-168.79 518.5,-168.79"/>
</g>
<!-- AppRoutingModule -->
<g id="node5" class="node">
<title>AppRoutingModule</title>
<polygon fill="#8dd3c7" stroke="black" points="586.28,-84.8 583.28,-88.8 562.28,-88.8 559.28,-84.8 457.72,-84.8 457.72,-48.8 586.28,-48.8 586.28,-84.8"/>
<text text-anchor="middle" x="522" y="-62.6" font-family="Times,serif" font-size="14.00">AppRoutingModule</text>
</g>
<!-- AppRoutingModule&#45;&gt;AppModule -->
<g id="edge4" class="edge">
<title>AppRoutingModule&#45;&gt;AppModule</title>
<path fill="none" stroke="black" d="M522,-84.91C522,-84.91 522,-103.79 522,-103.79"/>
<polygon fill="black" stroke="black" points="518.5,-103.79 522,-113.79 525.5,-103.79 518.5,-103.79"/>
</g>
<!-- AuthModule -->
<g id="node6" class="node">
<title>AuthModule</title>
<polygon fill="#8dd3c7" stroke="black" points="439.55,-84.8 436.55,-88.8 415.55,-88.8 412.55,-84.8 352.45,-84.8 352.45,-48.8 439.55,-48.8 439.55,-84.8"/>
<text text-anchor="middle" x="396" y="-62.6" font-family="Times,serif" font-size="14.00">AuthModule</text>
</g>
<!-- AuthModule&#45;&gt;AppModule -->
<g id="edge5" class="edge">
<title>AuthModule&#45;&gt;AppModule</title>
<path fill="none" stroke="black" d="M396,-84.81C396,-100.85 396,-121.8 396,-121.8 396,-121.8 470.04,-121.8 470.04,-121.8"/>
<polygon fill="black" stroke="black" points="470.04,-125.3 480.04,-121.8 470.04,-118.3 470.04,-125.3"/>
</g>
<!-- HomeModule -->
<g id="node7" class="node">
<title>HomeModule</title>
<polygon fill="#8dd3c7" stroke="black" points="333.77,-84.8 330.77,-88.8 309.77,-88.8 306.77,-84.8 240.23,-84.8 240.23,-48.8 333.77,-48.8 333.77,-84.8"/>
<text text-anchor="middle" x="287" y="-62.6" font-family="Times,serif" font-size="14.00">HomeModule</text>
</g>
<!-- HomeModule&#45;&gt;AppModule -->
<g id="edge6" class="edge">
<title>HomeModule&#45;&gt;AppModule</title>
<path fill="none" stroke="black" d="M287,-85.07C287,-103.36 287,-128.8 287,-128.8 287,-128.8 470.26,-128.8 470.26,-128.8"/>
<polygon fill="black" stroke="black" points="470.26,-132.3 480.26,-128.8 470.26,-125.3 470.26,-132.3"/>
</g>
<!-- ShopModule -->
<g id="node8" class="node">
<title>ShopModule</title>
<polygon fill="#8dd3c7" stroke="black" points="222.34,-84.8 219.34,-88.8 198.34,-88.8 195.34,-84.8 133.66,-84.8 133.66,-48.8 222.34,-48.8 222.34,-84.8"/>
<text text-anchor="middle" x="178" y="-62.6" font-family="Times,serif" font-size="14.00">ShopModule</text>
</g>
<!-- ShopModule&#45;&gt;AppModule -->
<g id="edge7" class="edge">
<title>ShopModule&#45;&gt;AppModule</title>
<path fill="none" stroke="black" d="M178,-84.93C178,-105.37 178,-135.8 178,-135.8 178,-135.8 470.16,-135.8 470.16,-135.8"/>
<polygon fill="black" stroke="black" points="470.16,-139.3 480.16,-135.8 470.16,-132.3 470.16,-139.3"/>
</g>
<!-- StaticModule -->
<g id="node9" class="node">
<title>StaticModule</title>
<polygon fill="#8dd3c7" stroke="black" points="115.94,-84.8 112.94,-88.8 91.94,-88.8 88.94,-84.8 24.06,-84.8 24.06,-48.8 115.94,-48.8 115.94,-84.8"/>
<text text-anchor="middle" x="70" y="-62.6" font-family="Times,serif" font-size="14.00">StaticModule</text>
</g>
<!-- StaticModule&#45;&gt;AppModule -->
<g id="edge8" class="edge">
<title>StaticModule&#45;&gt;AppModule</title>
<path fill="none" stroke="black" d="M70,-84.81C70,-107.29 70,-142.8 70,-142.8 70,-142.8 470.29,-142.8 470.29,-142.8"/>
<polygon fill="black" stroke="black" points="470.29,-146.3 480.29,-142.8 470.29,-139.3 470.29,-146.3"/>
</g>
<!-- AuthInterceptor -->
<g id="node11" class="node">
<title>AuthInterceptor</title>
<ellipse fill="#fdb462" stroke="black" cx="683" cy="-66.8" rx="72.92" ry="18"/>
<text text-anchor="middle" x="683" y="-62.6" font-family="Times,serif" font-size="14.00">AuthInterceptor</text>
</g>
<!-- AuthInterceptor&#45;&gt;AppModule -->
<g id="edge10" class="edge">
<title>AuthInterceptor&#45;&gt;AppModule</title>
<path fill="none" stroke="black" d="M683,-84.81C683,-100.85 683,-121.8 683,-121.8 683,-121.8 573.88,-121.8 573.88,-121.8"/>
<polygon fill="black" stroke="black" points="573.88,-118.3 563.88,-121.8 573.88,-125.3 573.88,-118.3"/>
</g>
</g>
</svg>
