<?xml version="1.0" encoding="UTF-8" standalone="no"?>
<!DOCTYPE svg PUBLIC "-//W3C//DTD SVG 1.1//EN"
 "http://www.w3.org/Graphics/SVG/1.1/DTD/svg11.dtd">
<!-- Generated by graphviz version 5.0.0 (20220707.1540)
 -->
<!-- Title: dependencies Pages: 1 -->
<svg width="490pt" height="174pt"
 viewBox="0.00 0.00 490.00 173.80" xmlns="http://www.w3.org/2000/svg" xmlns:xlink="http://www.w3.org/1999/xlink">
<g id="graph0" class="graph" transform="scale(1 1) rotate(0) translate(4 169.8)">
<title>dependencies</title>
<polygon fill="white" stroke="transparent" points="-4,4 -4,-169.8 486,-169.8 486,4 -4,4"/>
<text text-anchor="middle" x="241" y="-8.2" font-family="sans-serif" font-size="14.00">dependencies</text>
<g id="clust1" class="cluster">
<title>cluster_StaticModule</title>
<polygon fill="none" stroke="black" stroke-dasharray="1,5" points="8,-32.8 8,-157.8 474,-157.8 474,-32.8 8,-32.8"/>
</g>
<g id="clust2" class="cluster">
<title>cluster_StaticModule_declarations</title>
<polygon fill="none" stroke="black" points="176,-40.8 176,-92.8 466,-92.8 466,-40.8 176,-40.8"/>
</g>
<g id="clust5" class="cluster">
<title>cluster_StaticModule_imports</title>
<polygon fill="none" stroke="black" points="16,-40.8 16,-92.8 168,-92.8 168,-40.8 16,-40.8"/>
</g>
<!-- AboutUsComponent -->
<g id="node1" class="node">
<title>AboutUsComponent</title>
<polygon fill="#ffffb3" stroke="black" points="457.89,-84.8 326.11,-84.8 326.11,-48.8 457.89,-48.8 457.89,-84.8"/>
<text text-anchor="middle" x="392" y="-62.6" font-family="Times,serif" font-size="14.00">AboutUsComponent</text>
</g>
<!-- StaticModule -->
<g id="node3" class="node">
<title>StaticModule</title>
<polygon fill="#8dd3c7" stroke="black" points="291.94,-149.8 288.94,-153.8 267.94,-153.8 264.94,-149.8 200.06,-149.8 200.06,-113.8 291.94,-113.8 291.94,-149.8"/>
<text text-anchor="middle" x="246" y="-127.6" font-family="Times,serif" font-size="14.00">StaticModule</text>
</g>
<!-- AboutUsComponent&#45;&gt;StaticModule -->
<g id="edge1" class="edge">
<title>AboutUsComponent&#45;&gt;StaticModule</title>
<path fill="none" stroke="black" d="M392,-84.91C392,-104.14 392,-131.8 392,-131.8 392,-131.8 301.79,-131.8 301.79,-131.8"/>
<polygon fill="black" stroke="black" points="301.79,-128.3 291.79,-131.8 301.79,-135.3 301.79,-128.3"/>
</g>
<!-- PrivacyComponent -->
<g id="node2" class="node">
<title>PrivacyComponent</title>
<polygon fill="#ffffb3" stroke="black" points="308.1,-84.8 183.9,-84.8 183.9,-48.8 308.1,-48.8 308.1,-84.8"/>
<text text-anchor="middle" x="246" y="-62.6" font-family="Times,serif" font-size="14.00">PrivacyComponent</text>
</g>
<!-- PrivacyComponent&#45;&gt;StaticModule -->
<g id="edge2" class="edge">
<title>PrivacyComponent&#45;&gt;StaticModule</title>
<path fill="none" stroke="black" d="M246,-84.91C246,-84.91 246,-103.79 246,-103.79"/>
<polygon fill="black" stroke="black" points="242.5,-103.79 246,-113.79 249.5,-103.79 242.5,-103.79"/>
</g>
<!-- StaticRoutingModule -->
<g id="node4" class="node">
<title>StaticRoutingModule</title>
<polygon fill="#8dd3c7" stroke="black" points="160.05,-84.8 157.05,-88.8 136.05,-88.8 133.05,-84.8 23.95,-84.8 23.95,-48.8 160.05,-48.8 160.05,-84.8"/>
<text text-anchor="middle" x="92" y="-62.6" font-family="Times,serif" font-size="14.00">StaticRoutingModule</text>
</g>
<!-- StaticRoutingModule&#45;&gt;StaticModule -->
<g id="edge3" class="edge">
<title>StaticRoutingModule&#45;&gt;StaticModule</title>
<path fill="none" stroke="black" d="M92,-84.91C92,-104.14 92,-131.8 92,-131.8 92,-131.8 190.21,-131.8 190.21,-131.8"/>
<polygon fill="black" stroke="black" points="190.21,-135.3 200.21,-131.8 190.21,-128.3 190.21,-135.3"/>
</g>
</g>
</svg>
