<?xml version="1.0" encoding="UTF-8" standalone="no"?>
<!DOCTYPE svg PUBLIC "-//W3C//DTD SVG 1.1//EN"
 "http://www.w3.org/Graphics/SVG/1.1/DTD/svg11.dtd">
<!-- Generated by graphviz version 5.0.0 (20220707.1540)
 -->
<!-- Title: dependencies Pages: 1 -->
<svg width="934pt" height="174pt"
 viewBox="0.00 0.00 934.00 173.80" xmlns="http://www.w3.org/2000/svg" xmlns:xlink="http://www.w3.org/1999/xlink">
<g id="graph0" class="graph" transform="scale(1 1) rotate(0) translate(4 169.8)">
<title>dependencies</title>
<polygon fill="white" stroke="transparent" points="-4,4 -4,-169.8 930,-169.8 930,4 -4,4"/>
<text text-anchor="middle" x="463" y="-8.2" font-family="sans-serif" font-size="14.00">dependencies</text>
<g id="clust1" class="cluster">
<title>cluster_StaticModule</title>
<polygon fill="none" stroke="black" stroke-dasharray="1,5" points="8,-32.8 8,-157.8 918,-157.8 918,-32.8 8,-32.8"/>
</g>
<g id="clust8" class="cluster">
<title>cluster_StaticModule_imports</title>
<polygon fill="none" stroke="black" points="758,-40.8 758,-92.8 910,-92.8 910,-40.8 758,-40.8"/>
</g>
<g id="clust2" class="cluster">
<title>cluster_StaticModule_declarations</title>
<polygon fill="none" stroke="black" points="16,-40.8 16,-92.8 750,-92.8 750,-40.8 16,-40.8"/>
</g>
<!-- AboutComponent -->
<g id="node1" class="node">
<title>AboutComponent</title>
<polygon fill="#ffffb3" stroke="black" points="742.33,-84.8 625.67,-84.8 625.67,-48.8 742.33,-48.8 742.33,-84.8"/>
<text text-anchor="middle" x="684" y="-62.6" font-family="Times,serif" font-size="14.00">AboutComponent</text>
</g>
<!-- StaticModule -->
<g id="node6" class="node">
<title>StaticModule</title>
<polygon fill="#8dd3c7" stroke="black" points="513.94,-149.8 510.94,-153.8 489.94,-153.8 486.94,-149.8 422.06,-149.8 422.06,-113.8 513.94,-113.8 513.94,-149.8"/>
<text text-anchor="middle" x="468" y="-127.6" font-family="Times,serif" font-size="14.00">StaticModule</text>
</g>
<!-- AboutComponent&#45;&gt;StaticModule -->
<g id="edge1" class="edge">
<title>AboutComponent&#45;&gt;StaticModule</title>
<path fill="none" stroke="black" d="M684,-84.82C684,-102.17 684,-125.8 684,-125.8 684,-125.8 523.81,-125.8 523.81,-125.8"/>
<polygon fill="black" stroke="black" points="523.81,-122.3 513.81,-125.8 523.81,-129.3 523.81,-122.3"/>
</g>
<!-- AboutUsComponent -->
<g id="node2" class="node">
<title>AboutUsComponent</title>
<polygon fill="#ffffb3" stroke="black" points="607.89,-84.8 476.11,-84.8 476.11,-48.8 607.89,-48.8 607.89,-84.8"/>
<text text-anchor="middle" x="542" y="-62.6" font-family="Times,serif" font-size="14.00">AboutUsComponent</text>
</g>
<!-- AboutUsComponent&#45;&gt;StaticModule -->
<g id="edge2" class="edge">
<title>AboutUsComponent&#45;&gt;StaticModule</title>
<path fill="none" stroke="black" d="M494.89,-84.91C494.89,-84.91 494.89,-103.79 494.89,-103.79"/>
<polygon fill="black" stroke="black" points="491.39,-103.79 494.89,-113.79 498.39,-103.79 491.39,-103.79"/>
</g>
<!-- ExploreComponent -->
<g id="node3" class="node">
<title>ExploreComponent</title>
<polygon fill="#ffffb3" stroke="black" points="457.65,-84.8 332.35,-84.8 332.35,-48.8 457.65,-48.8 457.65,-84.8"/>
<text text-anchor="middle" x="395" y="-62.6" font-family="Times,serif" font-size="14.00">ExploreComponent</text>
</g>
<!-- ExploreComponent&#45;&gt;StaticModule -->
<g id="edge3" class="edge">
<title>ExploreComponent&#45;&gt;StaticModule</title>
<path fill="none" stroke="black" d="M440.05,-84.91C440.05,-84.91 440.05,-103.79 440.05,-103.79"/>
<polygon fill="black" stroke="black" points="436.55,-103.79 440.05,-113.79 443.55,-103.79 436.55,-103.79"/>
</g>
<!-- PrivacyComponent -->
<g id="node4" class="node">
<title>PrivacyComponent</title>
<polygon fill="#ffffb3" stroke="black" points="314.1,-84.8 189.9,-84.8 189.9,-48.8 314.1,-48.8 314.1,-84.8"/>
<text text-anchor="middle" x="252" y="-62.6" font-family="Times,serif" font-size="14.00">PrivacyComponent</text>
</g>
<!-- PrivacyComponent&#45;&gt;StaticModule -->
<g id="edge4" class="edge">
<title>PrivacyComponent&#45;&gt;StaticModule</title>
<path fill="none" stroke="black" d="M252,-84.82C252,-102.17 252,-125.8 252,-125.8 252,-125.8 412.19,-125.8 412.19,-125.8"/>
<polygon fill="black" stroke="black" points="412.19,-129.3 422.19,-125.8 412.19,-122.3 412.19,-129.3"/>
</g>
<!-- TestimonialComponent -->
<g id="node5" class="node">
<title>TestimonialComponent</title>
<polygon fill="#ffffb3" stroke="black" points="172.21,-84.8 23.79,-84.8 23.79,-48.8 172.21,-48.8 172.21,-84.8"/>
<text text-anchor="middle" x="98" y="-62.6" font-family="Times,serif" font-size="14.00">TestimonialComponent</text>
</g>
<!-- TestimonialComponent&#45;&gt;StaticModule -->
<g id="edge5" class="edge">
<title>TestimonialComponent&#45;&gt;StaticModule</title>
<path fill="none" stroke="black" d="M98,-85.08C98,-106.12 98,-137.8 98,-137.8 98,-137.8 412.26,-137.8 412.26,-137.8"/>
<polygon fill="black" stroke="black" points="412.26,-141.3 422.26,-137.8 412.26,-134.3 412.26,-141.3"/>
</g>
<!-- StaticRoutingModule -->
<g id="node7" class="node">
<title>StaticRoutingModule</title>
<polygon fill="#8dd3c7" stroke="black" points="902.05,-84.8 899.05,-88.8 878.05,-88.8 875.05,-84.8 765.95,-84.8 765.95,-48.8 902.05,-48.8 902.05,-84.8"/>
<text text-anchor="middle" x="834" y="-62.6" font-family="Times,serif" font-size="14.00">StaticRoutingModule</text>
</g>
<!-- StaticRoutingModule&#45;&gt;StaticModule -->
<g id="edge6" class="edge">
<title>StaticRoutingModule&#45;&gt;StaticModule</title>
<path fill="none" stroke="black" d="M834,-85.08C834,-106.12 834,-137.8 834,-137.8 834,-137.8 523.98,-137.8 523.98,-137.8"/>
<polygon fill="black" stroke="black" points="523.98,-134.3 513.98,-137.8 523.98,-141.3 523.98,-134.3"/>
</g>
</g>
</svg>
